<svg xmlns="http://www.w3.org/2000/svg" xmlns:xlink="http://www.w3.org/1999/xlink" viewBox="0,0,256,256" width="35px" height="35px" fill-rule="nonzero"><g fill="#6667ab" fill-rule="nonzero" stroke="none" stroke-width="1" stroke-linecap="butt" stroke-linejoin="miter" stroke-miterlimit="10" stroke-dasharray="" stroke-dashoffset="0" font-family="none" font-weight="none" font-size="none" text-anchor="none" style="mix-blend-mode: normal"><g transform="scale(5.12,5.12)"><path d="M48,25c0,-12.683 -10.318,-23 -23,-23c-12.682,0 -23,10.317 -23,23c0,12.683 10.318,23 23,23c12.682,0 23,-10.317 23,-23zM35.554,27.875c0,0 1.446,0.542 1.446,2.078c0,1.626 -1.897,2.349 -1.897,2.349c0,0 0.542,0.723 0.542,1.717c0,0.904 0.09,2.982 -8.493,2.982c-10.581,0 -10.368,-1.728 -14.202,-1.972c-0.53,-0.034 -0.95,-0.466 -0.95,-0.997v-9.149c0,-0.427 0.233,-0.848 0.634,-0.996c1.384,-0.515 2.174,-2.687 3.676,-4.505c1.988,-2.349 6.148,-3.343 6.69,-9.035c0.271,-2.259 2.53,-1.265 3.253,0c1.175,1.988 0.209,4.052 -0.785,6.13c-0.814,1.806 -0.739,3.523 1.626,3.523c3,0 3.557,0 5.906,0c1.626,0 2.554,0.647 2.554,1.55c0,0.723 -0.181,1.897 -0.181,1.897c0,0 1.627,0.543 1.627,2.169c0,1.536 -1.446,2.259 -1.446,2.259z"></path></g></g></svg>