<?xml version="1.0"?><svg xmlns="http://www.w3.org/2000/svg"  viewBox="0 0 24 24" width="25px" height="25px">    <path d="M 12 1 A 2 2 0 0 0 10.005859 2.8789062 L 5.1015625 5.3320312 A 2 2 0 0 0 4 5 A 2 2 0 0 0 2 7 A 2 2 0 0 0 3 8.7304688 L 3 15.271484 A 2 2 0 0 0 2 17 A 2 2 0 0 0 4 19 A 2 2 0 0 0 5.1015625 18.667969 L 10.005859 21.119141 A 2 2 0 0 0 12 23 A 2 2 0 0 0 13.994141 21.121094 L 18.898438 18.667969 A 2 2 0 0 0 20 19 A 2 2 0 0 0 22 17 A 2 2 0 0 0 21 15.269531 L 21 8.7285156 A 2 2 0 0 0 22 7 A 2 2 0 0 0 20 5 A 2 2 0 0 0 18.898438 5.3320312 L 13.994141 2.8808594 A 2 2 0 0 0 12 1 z M 10.898438 4.6679688 A 2 2 0 0 0 12 5 A 2 2 0 0 0 13.101562 4.6679688 L 18.005859 7.1191406 A 2 2 0 0 0 19 8.7304688 L 19 15.271484 A 2 2 0 0 0 18.005859 16.878906 L 13.101562 19.332031 A 2 2 0 0 0 12 19 A 2 2 0 0 0 10.898438 19.332031 L 5.9941406 16.880859 A 2 2 0 0 0 5 15.269531 L 5 8.7285156 A 2 2 0 0 0 5.9941406 7.1210938 L 10.898438 4.6679688 z M 12 8 A 2 2 0 0 0 10 10 A 2 2 0 0 0 12 12 A 2 2 0 0 0 14 10 A 2 2 0 0 0 12 8 z M 12 13 C 10.665 13 9 13.720781 9 15.050781 L 9 16 L 15 16 L 15 15.050781 C 15 13.720781 13.335 13 12 13 z"/></svg>