<svg xmlns="http://www.w3.org/2000/svg"  viewBox="0 0 48 48" width="40px" height="40px"><path fill="none" stroke="#000" stroke-linecap="round" stroke-linejoin="round" stroke-width="3" d="M16.4,13.2L23.3,7c0.4-0.3,1-0.3,1.3,0L43,23.4"/><path fill="none" stroke="#000" stroke-linecap="round" stroke-linejoin="round" stroke-width="3" d="M5,23.4l7.2-6.4"/><path fill="none" stroke="#000" stroke-linecap="round" stroke-linejoin="round" stroke-width="3" d="M19.5,36v-6.6c0-0.6,0.4-1,1-1h7c0.6,0,1,0.4,1,1v12.2"/><path fill="none" stroke="#000" stroke-linecap="round" stroke-linejoin="round" stroke-width="3" d="M9.5,19.3v20.3c0,1.1,0.9,2,2,2h25c1.1,0,2-0.9,2-2V25.9"/><path fill="none" stroke="#000" stroke-linecap="round" stroke-linejoin="round" stroke-width="3" d="M32.5,14v-3.5c0-0.6,0.4-1,1-1h4c0.6,0,1,0.4,1,1v7.9"/></svg>