<svg xmlns="http://www.w3.org/2000/svg" viewBox="0 0 3000 2600" width="3000" height="2600"><g transform="translate(1764.0 1400.0) rotate(0.0 531.0 309.0) scale(2.366394523868944 2.3713140072520766)"><svg width="448.784" height="260.615" viewBox="0 0 448.784 260.615"><path d="M64.032 18.359h325.767c3.954 0 7.379 2.781 8.244 6.694l49.533 224.119c1.184 5.355-2.833 10.443-8.244 10.443H113.565c-3.954 0-7.379-2.781-8.244-6.694L55.788 28.802c-1.184-5.355 2.833-10.443 8.244-10.443z" fill="#dedffe"/><path d="M439.332 260.616H113.565c-4.455 0-8.247-3.075-9.221-7.479L54.811 29.018a9.604 9.604 0 0 1 1.891-8.128 9.368 9.368 0 0 1 7.33-3.53h325.767c4.456 0 8.247 3.075 9.22 7.479l49.533 224.118a9.606 9.606 0 0 1-1.891 8.129 9.364 9.364 0 0 1-7.329 3.53zM64.032 19.36a7.378 7.378 0 0 0-5.771 2.783 7.614 7.614 0 0 0-1.497 6.443l49.533 224.119c.769 3.479 3.758 5.91 7.268 5.91h325.767a7.375 7.375 0 0 0 5.77-2.783 7.617 7.617 0 0 0 1.498-6.444L397.067 25.27c-.769-3.479-3.758-5.91-7.268-5.91z" fill="#112c41"/><path d="M390.192 18.359H59.808a8.568 8.568 0 0 0-8.361 6.694L1.211 249.173c-1.2 5.355 2.873 10.443 8.361 10.443h330.385a8.568 8.568 0 0 0 8.361-6.694l50.236-224.119c1.2-5.356-2.874-10.444-8.362-10.444z" fill="#fff"/><path d="M339.957 260.616H9.572a9.523 9.523 0 0 1-7.469-3.588 9.523 9.523 0 0 1-1.868-8.074L50.471 24.836a9.516 9.516 0 0 1 9.337-7.476h330.385c2.921 0 5.644 1.308 7.469 3.588s2.506 5.223 1.867 8.073L349.293 253.14a9.514 9.514 0 0 1-9.336 7.476zM59.808 19.36a7.526 7.526 0 0 0-7.385 5.913L2.187 249.391c-.505 2.255.033 4.583 1.477 6.387s3.597 2.838 5.908 2.838h330.385a7.526 7.526 0 0 0 7.385-5.913l50.236-224.119c.505-2.255-.033-4.582-1.477-6.386s-3.598-2.838-5.908-2.838H59.808z" fill="#112c41"/><path d="M109.282 92.37H67.241c-5.909 0-9.625-4.79-8.3-10.698l4.037-18.012c1.324-5.909 7.188-10.698 13.096-10.698h42.041c5.909 0 9.625 4.79 8.3 10.698l-4.037 18.012c-1.324 5.908-7.187 10.698-13.096 10.698z" fill="#cbc8ff"/><path d="M190.982 92.37h-42.041c-5.909 0-9.625-4.79-8.3-10.698l4.037-18.012c1.324-5.909 7.188-10.698 13.096-10.698h42.041c5.909 0 9.625 4.79 8.3 10.698l-4.037 18.012c-1.324 5.908-7.187 10.698-13.096 10.698z" fill="#dedffe"/><path d="M272.682 92.37h-42.041c-5.909 0-9.625-4.79-8.3-10.698l4.037-18.012c1.324-5.909 7.188-10.698 13.096-10.698h42.041c5.909 0 9.625 4.79 8.3 10.698l-4.037 18.012c-1.324 5.908-7.187 10.698-13.096 10.698z" fill="#cbc8ff"/><path d="M354.383 92.37h-42.041c-5.909 0-9.625-4.79-8.3-10.698l4.037-18.012c1.324-5.909 7.188-10.698 13.096-10.698h42.041c5.909 0 9.625 4.79 8.3 10.698l-4.037 18.012c-1.324 5.908-7.188 10.698-13.096 10.698zM94.416 158.692H52.375c-5.909 0-9.625-4.79-8.3-10.698l4.037-18.012c1.324-5.909 7.188-10.698 13.096-10.698h42.041c5.909 0 9.625 4.79 8.3 10.698l-4.037 18.012c-1.324 5.908-7.187 10.698-13.096 10.698z" fill="#dedffe"/><path d="M176.117 158.692h-42.041c-5.909 0-9.625-4.79-8.3-10.698l4.037-18.012c1.324-5.909 7.188-10.698 13.096-10.698h42.041c5.909 0 9.625 4.79 8.3 10.698l-4.037 18.012c-1.325 5.908-7.188 10.698-13.096 10.698z" fill="#cbc8ff"/><path d="M257.817 158.692h-42.041c-5.909 0-9.625-4.79-8.3-10.698l4.037-18.012c1.324-5.909 7.188-10.698 13.096-10.698h42.041c5.909 0 9.625 4.79 8.3 10.698l-4.037 18.012c-1.324 5.908-7.188 10.698-13.096 10.698z" fill="#dedffe"/><path d="M339.517 158.692h-42.041c-5.909 0-9.625-4.79-8.3-10.698l4.037-18.012c1.324-5.909 7.188-10.698 13.096-10.698h42.041c5.909 0 9.625 4.79 8.3 10.698l-4.037 18.012c-1.324 5.908-7.188 10.698-13.096 10.698zM79.551 225.013H37.509c-5.909 0-9.625-4.79-8.3-10.698l4.037-18.012c1.324-5.909 7.188-10.698 13.096-10.698h42.041c5.909 0 9.625 4.79 8.3 10.698l-4.037 18.012c-1.323 5.908-7.187 10.698-13.095 10.698z" fill="#cbc8ff"/><path d="M161.251 225.013H119.21c-5.909 0-9.625-4.79-8.3-10.698l4.037-18.012c1.324-5.909 7.188-10.698 13.096-10.698h42.041c5.909 0 9.625 4.79 8.3 10.698l-4.037 18.012c-1.324 5.908-7.188 10.698-13.096 10.698z" fill="#dedffe"/><path d="M242.951 225.013H200.91c-5.909 0-9.625-4.79-8.3-10.698l4.037-18.012c1.324-5.909 7.188-10.698 13.096-10.698h42.041c5.909 0 9.625 4.79 8.3 10.698l-4.037 18.012c-1.324 5.908-7.187 10.698-13.096 10.698z" fill="#cbc8ff"/><path d="M324.651 225.013H282.61c-5.909 0-9.625-4.79-8.3-10.698l4.037-18.012c1.324-5.909 7.188-10.698 13.096-10.698h42.041c5.909 0 9.625 4.79 8.3 10.698l-4.037 18.012c-1.324 5.908-7.187 10.698-13.096 10.698z" fill="#dedffe"/><g fill="#112c41"><path d="M360.444 33.836c-9.328 0-16.918-7.59-16.918-16.918S351.115 0 360.444 0s16.918 7.59 16.918 16.918a2.5 2.5 0 1 1-5 0c0-6.571-5.346-11.918-11.918-11.918s-11.918 5.347-11.918 11.918 5.346 11.918 11.918 11.918a2.5 2.5 0 1 1 0 5zm-69.05 0c-9.328 0-16.918-7.59-16.918-16.918S282.066 0 291.394 0s16.918 7.59 16.918 16.918a2.5 2.5 0 1 1-5 0c0-6.571-5.346-11.918-11.918-11.918s-11.918 5.347-11.918 11.918 5.346 11.918 11.918 11.918a2.5 2.5 0 1 1 0 5zm-69.05 0c-9.328 0-16.918-7.59-16.918-16.918S213.016 0 222.344 0s16.918 7.59 16.918 16.918a2.5 2.5 0 1 1-5 0c0-6.571-5.346-11.918-11.918-11.918s-11.918 5.347-11.918 11.918 5.346 11.918 11.918 11.918a2.5 2.5 0 1 1 0 5zm-69.049 0c-9.328 0-16.918-7.59-16.918-16.918S143.966 0 153.295 0c9.328 0 16.918 7.59 16.918 16.918a2.5 2.5 0 1 1-5 0c0-6.571-5.346-11.918-11.918-11.918s-11.918 5.347-11.918 11.918 5.346 11.918 11.918 11.918a2.5 2.5 0 1 1 0 5zm-69.05 0c-9.328 0-16.918-7.59-16.918-16.918S74.917 0 84.245 0s16.918 7.59 16.918 16.918a2.5 2.5 0 1 1-5 0C96.163 10.346 90.817 5 84.245 5s-11.918 5.347-11.918 11.918 5.346 11.918 11.918 11.918a2.5 2.5 0 1 1 0 5z"/></g><path d="M233.738 171.77c-9.342 0-17.385-3.627-22.647-10.213-5.436-6.803-7.23-15.854-5.051-25.483 4.315-19.075 23.366-34.594 42.468-34.594 9.342 0 17.385 3.627 22.647 10.213 5.436 6.804 7.23 15.854 5.052 25.484-4.315 19.075-23.366 34.593-42.469 34.593zm14.77-65.29c-16.899 0-33.762 13.771-37.592 30.697-1.836 8.117-.387 15.667 4.081 21.259 4.294 5.374 10.95 8.334 18.741 8.334 16.899 0 33.763-13.771 37.592-30.696 1.836-8.118.387-15.668-4.081-21.26-4.295-5.374-10.95-8.334-18.741-8.334z" fill="#ff90d8"/></svg></g><g transform="translate(2314.0 1282.0) rotate(0.0 -309.0 188.0) scale(-2.443489366076618 2.44890515702953)"><svg width="252.917" height="153.538" viewBox="0 0 252.917 153.538"><path d="M28.447 149.024a10.408 10.408 0 0 1-5.99 2.36l-13.743.837-5.054.313c-2.1.128-3.408-2.235-2.193-3.954l2.832-3.99 8.442-11.919a10.424 10.424 0 0 1 3.282-2.994l8.656-5.008 10.756 18.592-6.988 5.764z" fill="#fcd7ac"/><path d="M3.502 153.538a3.474 3.474 0 0 1-3.053-1.798 3.487 3.487 0 0 1 .201-3.739l11.274-15.91a11.318 11.318 0 0 1 3.597-3.281l8.656-5.008a.999.999 0 0 1 1.366.365L36.3 142.759a1 1 0 0 1-.229 1.272l-6.988 5.763a11.335 11.335 0 0 1-6.565 2.586l-18.796 1.15a3.212 3.212 0 0 1-.22.007zm20.812-27.504-7.79 4.507a9.334 9.334 0 0 0-2.966 2.706l-11.275 15.91a1.482 1.482 0 0 0-.086 1.609 1.47 1.47 0 0 0 1.403.768l18.797-1.15a9.357 9.357 0 0 0 5.414-2.133l6.335-5.224z" fill="#112c41"/><path d="m218.568 12.494 11.78 20.363L27.093 150.448a3.501 3.501 0 0 1-4.782-1.277l-8.275-14.303a3.501 3.501 0 0 1 1.277-4.783z" fill="#fcaa51"/><path d="M25.35 151.919a4.5 4.5 0 0 1-3.902-2.246l-8.275-14.304a4.461 4.461 0 0 1-.453-3.414 4.472 4.472 0 0 1 2.094-2.734L218.067 11.628a.999.999 0 0 1 1.366.365l11.781 20.363a1.001 1.001 0 0 1-.364 1.366L27.596 151.315a4.479 4.479 0 0 1-2.246.604zM218.203 13.86 15.814 130.952a2.486 2.486 0 0 0-1.164 1.519 2.484 2.484 0 0 0 .252 1.896l8.275 14.304a2.503 2.503 0 0 0 3.416.912l202.39-117.092-10.78-18.632z" fill="#112c41"/><path d="m223.878 9.42 11.78 20.363-5.311 3.073-11.781-20.362z" fill="#dedffe"/><path d="M230.351 33.856a.996.996 0 0 1-.866-.5l-11.781-20.363a1.001 1.001 0 0 1 .364-1.366l5.313-3.073a.998.998 0 0 1 1.366.365l11.781 20.363a1.001 1.001 0 0 1-.364 1.366l-5.313 3.073a1 1 0 0 1-.5.135zm-10.416-20.998 10.78 18.632 3.581-2.072-10.78-18.632z" fill="#112c41"/><path d="m245.667 4.187 5.39 9.317a6.383 6.383 0 0 1-2.327 8.718l-13.07 7.56L223.88 9.42l13.068-7.56a6.383 6.383 0 0 1 8.717 2.327z" fill="#ffa9dc"/><path d="M235.663 30.783a.996.996 0 0 1-.866-.5L223.016 9.92a1.001 1.001 0 0 1 .364-1.366L236.449.993a7.333 7.333 0 0 1 5.6-.742 7.33 7.33 0 0 1 4.484 3.435l5.391 9.317c2.038 3.522.831 8.046-2.691 10.084l-13.069 7.561a1 1 0 0 1-.5.135zM225.247 9.785l10.78 18.632 12.203-7.06a5.389 5.389 0 0 0 1.963-7.352l-5.391-9.317a5.347 5.347 0 0 0-3.27-2.504 5.347 5.347 0 0 0-4.082.541l-12.204 7.061z" fill="#112c41"/><path d="m8.714 152.221-5.054.313c-2.1.128-3.408-2.235-2.193-3.954l2.832-3.99 4.415 7.632z" fill="#FFA9DC"/><path d="M3.502 153.538a3.474 3.474 0 0 1-3.053-1.798 3.487 3.487 0 0 1 .201-3.739l2.833-3.992a1 1 0 0 1 1.68.078l4.415 7.632a.997.997 0 0 1-.803 1.498l-5.054.313a3.212 3.212 0 0 1-.22.007zm.711-7.101-1.931 2.72a1.482 1.482 0 0 0-.086 1.609 1.47 1.47 0 0 0 1.403.768l3.439-.213-2.826-4.885z" fill="#112c41"/></svg></g><g transform="translate(1562.0 418.0) rotate(0.0 191.0 199.0) scale(1.735614166609873 1.729089100222001)"><svg width="220.095" height="230.179" viewBox="0 0 220.095 230.179"><path d="M113.314 1.05C54.337-.73 4.218 45.421 1.15 104.345c-1.518 29.159 8.538 56.169 26.099 76.652 1.303 1.519 1.841 3.549 1.507 5.522l-6.285 37.068c-.642 3.787 3.217 6.748 6.708 5.148l36.039-16.516a7.852 7.852 0 0 1 6.058-.223c11.18 4.25 23.261 6.724 35.915 7.059 60.013 1.588 110.383-46.328 111.867-106.344C220.54 52.904 173.434 2.864 113.314 1.05z" fill="#fff"/><path d="M27.167 230.184a5.733 5.733 0 0 1-3.5-1.208c-1.73-1.328-2.546-3.404-2.182-5.554l6.285-37.068c.289-1.704-.178-3.419-1.279-4.704C8.03 160.117-1.324 132.645.152 104.293c1.497-28.76 14.083-55.429 35.437-75.095C56.943 9.533 84.559-.815 113.345.05c60.335 1.821 108.208 52.371 106.716 112.686-.726 29.314-12.916 56.661-34.328 77.003-21.39 20.323-49.282 31.085-78.565 30.315-12.484-.33-24.679-2.727-36.244-7.124-1.688-.641-3.614-.57-5.286.197l-36.039 16.517a5.83 5.83 0 0 1-2.431.539zM110.049 2C53.197 2 5.122 47.284 2.15 104.397c-1.449 27.836 7.734 54.809 25.859 75.949 1.49 1.737 2.122 4.048 1.734 6.34l-6.285 37.068a3.729 3.729 0 0 0 1.427 3.634 3.727 3.727 0 0 0 3.879.438l36.039-16.517c2.157-.988 4.646-1.079 6.831-.249 11.354 4.317 23.327 6.67 35.586 6.994 28.728.762 56.131-9.81 77.136-29.766 21.023-19.974 32.993-46.824 33.705-75.603C219.526 53.469 172.524 3.837 113.284 2.049c-1.081-.032-2.16-.049-3.235-.049z" fill="#112c41"/><circle cx="108.604" cy="146.669" fill="#ffe993" r="13.013"/><path d="M108.607 160.683h-.101c-7.727-.054-13.97-6.384-13.916-14.111.055-7.694 6.331-13.916 14.012-13.916h.1a13.922 13.922 0 0 1 9.88 4.174c2.629 2.665 4.062 6.195 4.035 9.938s-1.508 7.252-4.173 9.88a13.925 13.925 0 0 1-9.837 4.035zm-.005-26.027c-6.585 0-11.965 5.333-12.012 11.929-.046 6.624 5.306 12.051 11.93 12.097 3.234.038 6.234-1.206 8.52-3.459a11.935 11.935 0 0 0 3.577-8.47c.022-3.209-1.206-6.234-3.459-8.519s-5.261-3.556-8.47-3.578z" fill="#112c41"/><rect fill="#ffe993" height="30.031" rx="4.5" transform="matrix(.99997563 .00698126 -.00698126 .99997563 .419 -.758)" width="9.009" x="104.207" y="44.562"/><path d="M108.644 75.593h-.042a5.51 5.51 0 0 1-5.469-5.538l.147-21.031a5.505 5.505 0 0 1 5.499-5.461h.039c1.479.01 2.855.592 3.887 1.638s1.595 2.431 1.584 3.9l-.146 21.031a5.505 5.505 0 0 1-5.499 5.461zm.146-30.03a3.506 3.506 0 0 0-3.509 3.475l-.147 21.031a3.504 3.504 0 0 0 3.476 3.524h.035a3.504 3.504 0 0 0 3.499-3.476l.146-21.031c.007-.935-.352-1.816-1.008-2.482s-1.532-1.036-2.467-1.042h-.025z" fill="#112c41"/><path d="M139.026 90.822c-.182 26.026 11.341 37.174 7.714 42.098-5.51 7.481-28.037-.196-38.038-.266-8.293-.058-29.653 7.23-35.049 1.757-5.396-5.472 5.138-18.984 5.313-44.01.133-19.019 13.655-29.936 30.24-29.821 16.585.116 29.953 11.221 29.821 30.24z" fill="#ffe993"/><path d="M81.111 137.441c-3.548 0-6.48-.614-8.17-2.327-3.122-3.166-1.738-8.187.355-15.786 1.934-7.021 4.583-16.636 4.669-28.932.127-18.178 12.85-30.814 30.975-30.814h.272c18.271.128 30.941 12.977 30.813 31.247l-1-.007 1 .007c-.103 14.748 3.637 24.758 6.111 31.381 1.972 5.28 3.275 8.768 1.407 11.303-4.18 5.674-16.343 3.558-27.074 1.69-4.515-.786-8.778-1.528-11.775-1.549h-.092c-2.674 0-6.863.792-11.297 1.63-5.491 1.038-11.404 2.156-16.195 2.156zm27.818-75.86c-17.218 0-28.843 11.554-28.964 28.829-.088 12.56-2.777 22.322-4.741 29.449-1.909 6.929-3.17 11.507-.859 13.851 3.222 3.268 13.949 1.239 22.57-.39 4.583-.867 8.939-1.681 11.773-1.665 3.163.022 7.507.778 12.104 1.579 9.658 1.681 21.676 3.773 25.121-.906 1.226-1.663.073-4.748-1.671-9.417-2.525-6.761-6.343-16.979-6.237-32.095.121-17.364-11.464-29.112-28.827-29.233h-.27z" fill="#112c41"/><rect fill="#ffe993" height="17.018" rx="8.5" transform="matrix(.99997563 .00698126 -.00698126 .99997563 .926 -.756)" width="96.099" x="60.655" y="123.646"/><path d="M148.256 141.94h-.068l-79.098-.553c-2.538-.018-4.916-1.023-6.698-2.83s-2.753-4.199-2.735-6.737c.037-5.233 4.292-9.451 9.499-9.451h.067l79.097.553c2.538.018 4.916 1.022 6.698 2.829s2.753 4.199 2.735 6.737a9.45 9.45 0 0 1-2.829 6.716 9.434 9.434 0 0 1-6.668 2.736zm-79.101-17.57c-4.11 0-7.47 3.33-7.499 7.448a7.459 7.459 0 0 0 2.159 5.336 7.45 7.45 0 0 0 5.288 2.234l79.098.552a7.427 7.427 0 0 0 5.318-2.159 7.444 7.444 0 0 0 2.233-5.288 7.459 7.459 0 0 0-2.159-5.336 7.45 7.45 0 0 0-5.288-2.234l-79.097-.553h-.054z" fill="#112c41"/></svg></g><g transform="translate(1160.0 594.0) rotate(32.28916285018623 -367.0 316.0) scale(-2.7480344440284536 2.7418655097613884)"><svg width="267.1" height="230.5" viewBox="0 0 267.1 230.5"><circle cx="29.6" cy="84.8" fill="#ffd6c0" r="28.6"/><path d="M28 113.3c-15.2-.8-27-13.4-27-28.5 3.7 10.7 13.5 18.6 25.5 19.2 15.8.9 29.2-11.2 30.1-27v-1.5c1.2 3.4 1.7 7.1 1.5 10.9-.9 15.7-14.3 27.8-30.1 26.9z" fill="#f5b9ab"/><path d="M29.6 114.4H28c-7.9-.4-15.1-3.9-20.4-9.8-5.3-5.9-8-13.5-7.6-21.4s3.9-15.1 9.8-20.4 13.5-7.9 21.3-7.5c15.4.8 27.6 13.5 28 28.9 0 .6-.4 1-1 1s-1-.4-1-1C56.8 69.9 45.4 58 31 57.3c-7.4-.4-14.4 2.1-19.9 7S2.4 76 2 83.3c-.4 7.4 2.1 14.4 7 19.9s11.7 8.7 19 9.1c7.7.4 15.2-2.4 20.7-7.8.4-.4 1-.4 1.4 0s.4 1 0 1.4c-5.4 5.5-12.9 8.5-20.5 8.5z" fill="#112c41"/><path d="M42.9 93.9c-.1 0-.3 0-.4-.1-.5-.2-.7-.8-.5-1.3 3.4-8.3-.4-17.8-8.5-21.1-4.4-1.8-9.4-1.5-13.6.9-.5.3-1.1.1-1.4-.4s-.1-1.1.4-1.4c4.8-2.7 10.4-3.1 15.4-1 9.1 3.7 13.4 14.3 9.6 23.7-.2.5-.6.7-1 .7z" fill="#112c41"/><circle cx="128.1" cy="127" fill="#ffd6c0" r="102.5"/><path d="M181.1 39.3c-.3-.2-.6-.3-.9-.5L168.1 46c45.6 27.8 61 84.8 33.8 129.8-27.4 45.2-87.1 61.2-133 33.5-4.6-2.8-8.8-5.8-12.7-9.2 5.6 5.5 11.8 10.4 18.8 14.6 48.4 29.3 111.5 13.8 140.8-34.6s13.8-111.5-34.7-140.8z" fill="#f5b9ab"/><g fill="#112c41"><path d="M127.9 230.5c-18.7 0-37-5.1-53.4-15-23.7-14.3-40.3-37-46.9-63.8s-2.4-54.7 12-78.3c29.5-48.8 93.3-64.5 142.1-35s64.5 93.3 35 142.1c-14.3 23.7-37 40.3-63.8 46.9-8.4 2.1-16.7 3.1-25 3.1zm.3-205c-34.4 0-67.9 17.4-87 48.9-14 23.2-18.2 50.5-11.7 76.8s22.8 48.6 46 62.6 50.5 18.2 76.8 11.7 48.6-22.8 62.6-46l.9.5-.9-.5c29-47.9 13.6-110.4-34.3-139.4-16.4-9.9-34.5-14.6-52.4-14.6z"/><ellipse cx="147.5" cy="114.3" rx="9.1" ry="6.8" transform="matrix(.4684 -.8835 .8835 .4684 -22.5456 191.0647)"/><ellipse cx="168.8" cy="84.3" rx="9.3" ry="14.1" transform="matrix(.6371 -.7708 .7708 .6371 -3.7159 160.7051)"/><ellipse cx="82.8" cy="56.4" rx="13" ry="8.6" transform="matrix(.9982 -.05975936 .05975936 .9982 -3.2248 5.0518)"/><path d="M83.5 49.8c5.5 0 10.1 2.7 10.3 6 .1 2.2-1.6 3.8-2.6 4.6-2 1.5-4.9 2.5-8 2.7h-1.1c-5.5 0-10.1-2.7-10.3-6-.1-2.2 1.6-3.8 2.6-4.6 2-1.5 4.9-2.5 8-2.7zm0-2h-1.2c-7.2.4-12.8 4.6-12.5 9.4.3 4.5 5.7 7.8 12.3 7.8h1.2c7.2-.4 12.8-4.6 12.5-9.4-.2-4.4-5.6-7.8-12.3-7.8z"/><ellipse cx="82.4" cy="89.9" rx="9.1" ry="6.8" transform="matrix(.2957 -.9553 .9553 .2957 -27.8923 141.9943)"/><path d="M125.7 123.9c-5.8 11.1-16.3 17.2-25.2 14s-13-14.7-10.2-26.9c0-.1 35.4 12.9 35.4 12.9z"/><path d="M105.4 139.7c-1.8 0-3.6-.3-5.3-.9-9.2-3.4-13.8-15.2-10.9-28.1.1-.3.2-.5.5-.7.3-.1.6-.2.8-.1l35.4 13c.3.1.5.3.6.6s.1.6 0 .8c-4.9 9.6-13.2 15.4-21.1 15.4zM91 112.2c-2.2 11.5 1.8 21.7 9.8 24.7 8 2.9 17.7-2.3 23.4-12.5.1 0-33.2-12.2-33.2-12.2z"/></g><path d="M94.4 132.8c4.3-2.9 10.7-3 16.2.3 1.4.9 2.6 1.9 3.7 3-4.5 2.6-9.4 3.3-13.8 1.7-2.6-.9-4.7-2.6-6.4-4.7l.3-.3z" fill="#ffa6e0"/><path d="M105.4 139.7c-1.8 0-3.6-.3-5.3-.9-2.7-1-5-2.7-6.9-5-.2-.2-.2-.5-.2-.8s.2-.5.4-.7c.1-.1.3-.2.4-.3 4.7-3.2 11.7-3.1 17.3.3 1.5.9 2.8 1.9 3.9 3.1.2.2.3.5.3.8s-.2.6-.5.7c-3 1.9-6.3 2.8-9.4 2.8zm-9.8-6.4c1.5 1.6 3.3 2.8 5.3 3.6 3.6 1.3 7.8 1 11.8-1-.8-.7-1.6-1.3-2.5-1.9-4.8-2.9-10.6-3.1-14.6-.7z" fill="#112c41"/><circle cx="235.6" cy="164.6" fill="#ffd6c0" transform="matrix(.1602 -.9871 .9871 .1602 35.404 370.8364)" r="30.5"/><path d="M205.5 169.9c1.1 2.1 2.8 4.3 4.4 6.2 11.1 12.7 30.7 13.5 43.4 2.4 8.3-7.3 11.1-17.6 9.4-27.7 6.4 12.2 4.4 27.1-6.4 36.6-12.7 11.1-31.9 9.8-43-2.9-3.8-4.4-6.9-9.3-7.8-14.6z" fill="#f5b9ab"/><path d="M235.6 196.1c-5.7 0-11.3-1.5-16.3-4.6-7.4-4.5-13-12.7-14.8-21.5-.1-.5.2-1.1.8-1.2.5-.1 1.1.2 1.2.8 1.7 8.3 7 16 13.9 20.2 6.7 4.1 14.7 5.3 22.3 3.4 7.7-1.9 14.1-6.6 18.2-13.4 4.1-6.7 5.3-14.7 3.4-22.3-1.9-7.7-6.6-14.1-13.4-18.2-13.1-7.9-30.4-4.4-39.3 8.1-.3.4-.9.6-1.4.2-.4-.3-.6-.9-.2-1.4 9.5-13.3 27.9-17.1 41.9-8.6 7.2 4.4 12.3 11.3 14.3 19.4 2 8.2.7 16.6-3.6 23.8-4.4 7.2-11.3 12.3-19.4 14.3-2.6.7-5.1 1-7.6 1z" fill="#112c41"/><path d="M252.2 164.7c-.5 0-.9-.3-1-.8-1.1-5.1-4.3-9.4-8.9-11.7-4.1-2-8.7-2.3-13-.8-4.4 1.5-7.9 4.6-10 8.8-.2.5-.8.7-1.3.4-.5-.2-.7-.9-.4-1.3 2.3-4.6 6.3-8.1 11.2-9.8s10-1.3 14.6.9c5.1 2.6 8.7 7.3 9.9 13 .1.5-.2 1.1-.8 1.2-.1 0-.2.1-.3.1z" fill="#112c41"/><path d="M236.6 124.2C221.1 102 197.2 81 167.2 65.5c-12.8-6.6-25.7-11.7-38.5-15.4 3.2-9.2 8.1-17.3 14.2-23.6-.1.1-.3.1-.4.2-9.2 4.4-18.1 11.3-25.6 20.3-2.5-.6-4.9-1-7.4-1.5-18-3.2-35.3-3.5-50.5-.9-1.6.3-2.8-1.5-1.9-2.8 6-9 13.5-16.6 21.9-22.8 30.9-22.5 75.3-24.8 112-2.6 6.2 3.8 12 8.1 17.1 12.8 27 24.7 38.8 61 31.3 94.4-.4 1.3-2.1 1.7-2.8.6z" fill="#fcaa51"/><path d="M236.6 124.2c-3.9-5.6-8.4-11.2-13.4-16.6 6.5-29.7-4.1-61.9-28.1-83.9-4.6-4.2-9.7-8.1-15.3-11.5-4-2.4-8.2-4.5-12.3-6.3 8 2.5 15.8 6 23.4 10.6 6.2 3.8 12 8.1 17.1 12.8 27 24.7 38.8 61 31.3 94.4-.3 1.2-2 1.6-2.7.5z" fill="#ff9522"/><path d="M237.8 125.7c-.9 0-1.8-.5-2.4-1.3-15.9-22.7-40.3-43.3-68.7-57.9-12.5-6.4-25.4-11.6-38.3-15.3-.3-.1-.5-.3-.6-.5s-.1-.5-.1-.8c2.6-7.4 6.3-14.2 10.9-20-7.7 4.4-14.9 10.5-21.1 17.9-.2.3-.6.4-1 .3-20.2-4.5-40.1-5.3-57.4-2.4-1.3.2-2.5-.3-3.2-1.3-.6-.9-.5-2.2.2-3.3 5.9-8.8 13.3-16.5 22-22.9C93.8 7 112.6.7 132.6.1c20.5-.6 40.8 4.8 58.7 15.6 6.2 3.7 12 8.1 17.3 12.9 26.7 24.5 38.9 60.8 31.7 94.8-.3 1.2-1 2.1-2 2.3h-.5zM130 49.4c12.8 3.8 25.4 8.9 37.7 15.2 28.7 14.8 53.4 35.6 69.4 58.6.3.4.6.5.8.5.3-.1.4-.5.4-.7 7-33.3-4.9-68.9-31.1-92.9-5.2-4.7-10.9-9-17-12.7-35.5-21.6-79-20.6-110.8 2.5-8.5 6.2-15.8 13.7-21.6 22.4-.2.2-.4.7-.2 1.1.2.3.7.5 1.1.4 17.4-3 37.3-2.2 57.6 2.3 7.5-8.9 16.5-15.9 26.1-20.3.4-.2 1-.1 1.2.3s.2.9-.1 1.3c-5.7 5.8-10.4 13.5-13.5 22z" fill="#112c41"/><ellipse cx="150.5" cy="144.4" fill="#ffa9dc" rx="8" ry="12.1" transform="matrix(.07130589 -.9975 .9975 .07130589 -4.2558 284.2049)"/><ellipse cx="63" cy="111.3" fill="#ffa9dc" rx="8" ry="12.1" transform="matrix(.5934 -.8049 .8049 .5934 -63.9626 95.9174)"/></svg></g><g transform="translate(178.0 730.0) rotate(0.0 979.0 730.0) scale(2.3588372065006564 2.3613973002435795)"><svg width="830.07" height="618.278" viewBox="0 0 830.07 618.278"><path d="M619.438 160.668c.06 16.78-.81 34.77-3.19 53.44v.01c-9.26 72.72-41.39 155.84-130.51 218.7-140.54 99.13-187.76 79.76-199.98 36.82-11.72-41.19 8.76-104.05 9.98-104.82l-24-30s125.41-13.29 180-117c40-76 38-120 38-149 0-27.17 30-21 34 0 8-23 31-25 33-3 1-15 17-19 37 4 5.12 5.891 25.51 35.67 25.7 90.85z" fill="#ffd6c0"/><path d="M331.956 505.701c-7.015.001-13.321-.987-18.927-2.968-13.938-4.925-23.437-15.967-28.233-32.82-6.175-21.702-3.345-48.968.115-68.021 3.05-16.788 7.728-32.794 9.666-36.923l-23.621-29.526a.999.999 0 0 1 .675-1.619c.312-.033 31.69-3.504 69.3-19.559 34.662-14.797 81.869-43.621 109.921-96.913 38.109-72.407 37.979-115.839 37.893-144.58-.004-1.349-.008-2.667-.008-3.955 0-16.51 10.341-18.769 13.51-19.068 8.176-.771 18.199 5.026 21.687 15.808 5.278-12.164 14.522-16.907 21.324-16.068 5.581.684 9.684 4.719 11.53 11.088 1.332-3.635 3.825-6.226 7.212-7.365 3.866-1.304 14.577-2.352 30.491 15.95 1.051 1.209 25.735 30.307 25.945 91.503.066 18.371-1.009 36.382-3.193 53.535a.562.562 0 0 1-.005.045c-11.794 92.619-55.844 166.432-130.926 219.391-67.931 47.916-119.699 72.061-154.356 72.065zm-35.483-140.205c-1.593 2.777-21.146 63.831-9.754 103.87 4.609 16.194 13.685 26.786 26.976 31.482 32.654 11.535 90.343-11.626 171.466-68.846 74.595-52.615 118.363-125.95 130.09-217.973a.59.59 0 0 1 .005-.046c2.177-17.077 3.247-35.013 3.182-53.31-.081-23.392-3.76-44.775-10.935-63.555-6.585-17.236-13.727-25.73-14.519-26.642-10.491-12.064-21.086-17.81-28.344-15.367-4.021 1.353-6.537 5.281-6.903 10.777a1.001 1.001 0 0 1-.986.934c-.48-.018-.961-.39-1.008-.91-.755-8.307-4.765-13.704-10.726-14.435-6.551-.8-15.712 4.384-20.334 17.673a1 1 0 0 1-1.927-.142c-1.733-9.1-10.309-18.205-20.319-17.264-7.325.691-11.698 7.076-11.698 17.077 0 1.286.004 2.602.008 3.948.086 28.938.217 72.67-38.123 145.518-28.336 53.833-75.983 82.922-110.964 97.845-32.746 13.97-60.819 18.472-68.027 19.457l22.886 28.608a1 1 0 0 1-.046 1.301zm-.197.165-.005.003.005-.003zm.004-.002-.002.001.002-.001zm319.968-151.54h.01z" fill="#112c41"/><path d="M616.248 214.119c-9.26 72.72-41.39 155.84-130.51 218.7-140.54 99.13-187.76 79.76-199.98 36.82 29.12-9.58 73.5-23.2 127.98-36.82 100-25.001 172-102.001 202.51-218.7z" fill="#f5b9ab"/><path d="M331.975 505.703c-8.936 0-16.732-1.604-23.382-4.818-16.547-7.997-25.707-25.73-27.223-52.708-1.939-34.494 9.939-76.17 13.216-83.198l-23.629-29.536a.999.999 0 0 1 .675-1.619c.313-.033 31.691-3.503 69.302-19.558 34.663-14.796 81.87-43.621 109.919-96.914 38.109-72.407 37.979-115.839 37.893-144.58-.004-1.349-.008-2.667-.008-3.955 0-16.508 10.342-18.768 13.511-19.067 8.171-.768 18.199 5.026 21.686 15.806 5.278-12.164 14.522-16.907 21.324-16.068 5.581.685 9.684 4.719 11.53 11.088 1.332-3.635 3.825-6.226 7.211-7.365 3.867-1.304 14.577-2.352 30.492 15.95 1.051 1.208 25.729 30.29 25.949 91.5.181 50.365-8.167 96.674-24.815 137.639-22.011 54.164-58.789 99.697-109.313 135.335-67.961 47.938-119.689 72.066-154.338 72.068zm-35.504-140.204c-2.613 4.341-30.271 94.595 3.081 126.697 12.684 12.21 32.794 14.708 59.77 7.429 32.208-8.692 74.547-31.444 125.839-67.624 50.206-35.413 86.749-80.649 108.613-134.453 16.549-40.723 24.848-86.775 24.667-136.879-.218-60.474-24.428-89.009-25.459-90.194-10.49-12.064-21.087-17.809-28.344-15.367-4.021 1.353-6.537 5.281-6.903 10.777a1.001 1.001 0 0 1-.986.934c-.48-.018-.961-.39-1.008-.91-.755-8.307-4.765-13.703-10.726-14.435-6.552-.803-15.712 4.384-20.334 17.673a1 1 0 0 1-1.927-.142c-1.733-9.099-10.308-18.2-20.319-17.263-7.325.691-11.699 7.075-11.699 17.076 0 1.286.004 2.602.008 3.949.086 28.938.217 72.67-38.123 145.517-28.334 53.834-75.981 82.924-110.962 97.846-32.747 13.97-60.821 18.471-68.028 19.456l22.886 28.608a1 1 0 0 1-.046 1.305zm-.196.163-.004.003.004-.003z" fill="#112c41"/><path d="M392 421.778c0 33.52-8.44 65.07-23.3 92.65-33.02 61.24-97.75 102.85-172.2 102.85-107.97 0-195.5-87.53-195.5-195.5 0-13.34 1.34-26.37 3.88-38.96 18.06-89.3 96.99-156.54 191.62-156.54 107.97 0 195.5 87.53 195.5 195.5z" fill="#ffe993"/><path d="M196.5 618.279c-108.35 0-196.5-88.15-196.5-196.5 0-13.157 1.312-26.331 3.9-39.158 8.856-43.792 32.807-83.685 67.439-112.33 35.093-29.027 79.543-45.012 125.161-45.012 108.35 0 196.5 88.149 196.5 196.5 0 32.487-8.098 64.688-23.42 93.124-34.381 63.765-100.701 103.376-173.08 103.376zm0-391.001c-45.154 0-89.151 15.823-123.886 44.553-34.281 28.355-57.988 67.841-66.754 111.186A196.45 196.45 0 0 0 2 421.778c0 107.248 87.252 194.5 194.5 194.5 71.642 0 137.288-39.208 171.32-102.325 15.165-28.145 23.18-60.019 23.18-92.175 0-107.247-87.252-194.5-194.5-194.5z" fill="#112c41"/><path d="M368.7 514.428c-33.02 61.24-97.75 102.85-172.2 102.85-107.97 0-195.5-87.53-195.5-195.5 0-13.34 1.34-26.37 3.88-38.96h.01C28 617.278 269 629.278 368.7 514.428z" fill="#ffd169"/><path d="M196.5 618.279c-108.35 0-196.5-88.15-196.5-196.5 0-13.157 1.312-26.331 3.9-39.158 8.856-43.792 32.807-83.685 67.439-112.33 35.093-29.027 79.543-45.012 125.161-45.012 108.35 0 196.5 88.149 196.5 196.5 0 32.487-8.098 64.688-23.42 93.124-34.381 63.765-100.701 103.376-173.08 103.376zm0-391.001c-45.154 0-89.151 15.823-123.886 44.553-34.281 28.355-57.988 67.841-66.754 111.186A196.45 196.45 0 0 0 2 421.778c0 107.248 87.252 194.5 194.5 194.5 71.642 0 137.288-39.208 171.32-102.325 15.165-28.145 23.18-60.019 23.18-92.175 0-107.247-87.252-194.5-194.5-194.5z" fill="#112c41"/><path d="M373 471.278c-15.06 20.9-32.96 40.85-49.91 55.04-17.92 15-34.78 23.56-46.09 19.96-10.28-3.27-29.53-16.38-49.26-34.73-21.5-19.99-43.56-46.21-55.22-72.69-.01 0-.01-.01-.01-.01-.53-1.19-1.03-2.38-1.51-3.57l52.68-207.12c47.91 4.85 122.12 46.31 168.04 81.11 21.48 16.27 36.77 31.09 40.28 40.01 11 28-27.4 78.17-59 122z" fill="#ffe993"/><path d="M325 525.278c-17.92 15-36.69 24.6-48 21-21.49-6.84-84-58-106-111 25 29 106 79 154 90z" fill="#ffd169"/><path d="M373 471.278c-15.06 20.9-32.96 40.85-49.91 55.04-17.92 15-34.78 23.56-46.09 19.96-10.28-3.27-29.53-16.38-49.26-34.73 4.7-34.14 24.634-73.499 64.26-124.27 32-41 74.08-65.68 99.72-78.01 21.48 16.27 36.77 31.09 40.28 40.01 11 28-27.4 78.17-59 122z" fill="#fff"/><g fill="#112c41"><path d="M282.602 548.101c-2.054 0-4.032-.273-5.905-.869-23.56-7.497-86.197-60.998-106.624-111.579a1 1 0 0 1 1.855-.749c20.227 50.086 82.115 103.02 105.376 110.421 21.704 6.911 65.087-33.298 94.885-74.632 1.967-2.728 3.959-5.479 5.965-8.249 29.545-40.804 63.031-87.051 52.916-112.8-10.611-27.009-137.161-113.37-207.487-120.495a1 1 0 0 1 .202-1.991c31.337 3.175 77.564 22.449 126.827 52.878 42.963 26.538 76.814 54.861 82.32 68.875 10.516 26.767-23.312 73.486-53.157 114.705-2.005 2.769-3.997 5.52-5.962 8.246-15.871 22.014-34.661 42.585-51.552 56.438-11.524 9.452-27.029 19.801-39.659 19.801z"/><path d="M420.56 369.678c-5.44 18.88-25.01 52.35-52.22 87.51-23.11 29.87-46.42 54.09-63.28 66.84-10.88 8.23-19.08 11.68-22.82 8.79-3.61-2.8-2.54-11.12 2.26-23.05 7.87-19.54 25.73-48.77 49.34-79.28 25.15-32.5 50.52-58.32 67.58-69.93 8.73-5.96 15.28-8.19 18.51-5.69 2.71 2.1 2.78 7.301.63 14.81z"/><path d="M285.59 534.831c-1.586 0-2.907-.406-3.961-1.221-3.945-3.06-3.29-11.206 1.944-24.214 8.195-20.347 26.691-50.074 49.477-79.519 24.566-31.745 49.915-57.967 67.808-70.145 9.515-6.496 16.138-8.398 19.684-5.654 3 2.325 3.33 7.666.979 15.876v.001c-5.705 19.799-25.78 53.459-52.39 87.845-22.218 28.718-45.945 53.774-63.468 67.025-8.802 6.659-15.524 10.006-20.073 10.006zm130.983-179.974c-3.271 0-8.29 2.227-14.589 6.527-17.466 11.886-43.274 38.6-67.353 69.716-22.68 29.308-41.073 58.856-49.203 79.042-4.723 11.738-5.637 19.511-2.575 21.886 3.135 2.421 11.01-.784 21.604-8.797 17.39-13.151 40.976-38.068 63.092-66.654 26.065-33.681 46.496-67.899 52.05-87.175 2.073-7.241 1.976-11.994-.282-13.742-.693-.538-1.615-.803-2.744-.803zm3.987 14.821h.01z"/></g><path d="M764.028 460.099c-6.33 7.88-12.56 15.64-19.4 22.6-9.74 9.91-19.08 18.82-28.15 26.84h-.01c-57.84 51.21-104.64 66.23-174.21 72.26-74.89 6.5-156.16-16.77-237.2-57.77-7.63-3.86-14.22-9.14-20.56-14.26 3.39-8.4 8.62-18.6 15.37-29.93 1.36-2.28 2.78-4.61 4.26-6.98 8.24-13.19 18.31-27.63 29.71-42.37 25.15-32.5 50.52-58.32 67.58-69.93a536.31 536.31 0 0 0 19.14 9.12c58.15 26.3 105.16 41.47 148.18 33.14 85.41-16.54 141.28-111.06 186-120 30-6 47 15 43 30-2.08 7.79-21-6-23 19 26-2 58.54 17.8 48.07 54.46 17.79 28.08-2.5 78.049-58.78 73.82z" fill="#ffd6c0"/><path d="M517.004 583.876c-63.652.002-134.952-19.773-212.398-58.955-7.864-3.978-14.703-9.501-20.737-14.374a1 1 0 0 1-.299-1.152c3.448-8.545 8.643-18.662 15.438-30.068a404.083 404.083 0 0 1 4.271-6.998c8.425-13.486 18.718-28.166 29.767-42.452 24.566-31.745 49.914-57.967 67.808-70.145a1.002 1.002 0 0 1 1.01-.068 538.832 538.832 0 0 0 19.104 9.103c57.286 25.909 104.306 41.451 147.578 33.07 49.371-9.561 89.71-46.133 122.124-75.519 24.078-21.83 44.873-40.682 63.87-44.479 21.634-4.328 33.507 5.366 37.607 9.734 5.904 6.289 8.416 14.529 6.555 21.504-.941 3.526-4.591 3.554-8.121 3.581-6.226.048-13.261.103-14.742 14.087 15.854-.842 31.975 5.898 41.336 17.363 5.893 7.218 11.812 19.654 6.713 38.016 8.638 13.986 8.224 32.968-1.095 48.495-11.201 18.664-32.433 28.313-58.316 26.515-6.356 7.912-12.38 15.389-19.138 22.266-9.861 10.033-19.086 18.829-28.201 26.888a1.22 1.22 0 0 1-.09.071c-28.452 25.179-54.802 42.078-82.921 53.183-25.35 10.011-53.657 15.949-91.785 19.253-8.3.72-16.754 1.08-25.338 1.081zm-231.3-74.418c5.814 4.693 12.377 9.921 19.805 13.679 87.553 44.295 167.178 63.694 236.662 57.666 86.009-7.455 127.379-31.06 173.634-72.012a.899.899 0 0 1 .091-.072c9.054-8.009 18.219-16.75 28.019-26.721 6.785-6.905 12.854-14.459 19.279-22.458.206-.257.573-.466.909-.438 25.335 1.902 46.104-7.395 56.977-25.512 9.019-15.027 9.365-33.388.883-46.776a1 1 0 0 1-.117-.81c4.016-14.062 1.866-26.729-6.218-36.631-9.192-11.259-25.212-17.765-40.814-16.558a1.003 1.003 0 0 1-1.074-1.077c1.357-16.961 10.667-17.034 16.827-17.082 3.612-.028 5.681-.139 6.204-2.097 1.683-6.313-.647-13.831-6.081-19.62-8.183-8.718-21.216-12.05-35.757-9.142-18.455 3.689-39.06 22.37-62.919 44-32.598 29.553-73.168 66.333-123.087 76.001-43.791 8.479-91.149-7.144-148.782-33.211a537.76 537.76 0 0 1-18.648-8.873c-17.456 12.045-43.01 38.553-66.869 69.384-11.009 14.234-21.262 28.857-29.653 42.288a403.758 403.758 0 0 0-4.25 6.962c-6.466 10.858-11.648 20.902-15.021 29.11zm430.774.081h.01zm47.55-49.44.78.626z" fill="#112c41"/><path d="M716.468 509.538c-57.84 51.21-104.64 66.23-174.21 72.26-74.89 6.5-156.16-16.77-237.2-57.77-7.63-3.86-14.22-9.14-20.56-14.26 3.39-8.4 8.62-18.6 15.37-29.93 81.87 51.98 249.87 131.98 416.6 29.7z" fill="#f5b9ab"/><path d="M517.005 583.88c-63.658 0-134.959-19.775-212.397-58.959-7.861-3.977-14.701-9.5-20.737-14.374a1 1 0 0 1-.299-1.152c4.114-10.208 10.929-23.025 19.71-37.066 8.425-13.486 18.719-28.166 29.767-42.452 24.566-31.745 49.915-57.967 67.809-70.145a.998.998 0 0 1 1.01-.068 538.916 538.916 0 0 0 19.104 9.103c57.292 25.911 104.313 41.449 147.576 33.07 49.367-9.563 89.707-46.133 122.121-75.518 24.079-21.829 44.875-40.682 63.873-44.481 21.634-4.328 33.507 5.366 37.607 9.734 5.904 6.289 8.416 14.529 6.555 21.504-.94 3.524-4.589 3.553-8.118 3.58-6.227.048-13.263.103-14.745 14.088 15.857-.841 31.975 5.899 41.337 17.365 5.893 7.217 11.811 19.654 6.715 38.011 8.637 13.984 8.223 32.963-1.096 48.491-11.203 18.667-32.439 28.315-58.32 26.519-6.356 7.915-12.378 15.395-19.133 22.265l-.713-.701.713.701c-35.992 36.609-66.295 59.604-98.256 74.562-28.964 13.555-60.288 20.984-104.742 24.842a292.916 292.916 0 0 1-25.341 1.081zm-231.299-74.423c5.816 4.694 12.38 9.923 19.805 13.679 87.544 44.298 167.17 63.699 236.663 57.67 44.206-3.836 75.328-11.212 104.067-24.662 31.735-14.852 61.859-37.721 97.677-74.153 6.771-6.886 12.829-14.431 19.243-22.418l.084-.105a.988.988 0 0 1 .855-.371c25.339 1.902 46.107-7.396 56.982-25.516 9.018-15.026 9.365-33.385.884-46.771a1 1 0 0 1-.117-.81c4.015-14.06 1.864-26.725-6.22-36.626-9.052-11.086-25.456-17.743-40.815-16.559a1.003 1.003 0 0 1-1.074-1.077c1.357-16.962 10.668-17.035 16.83-17.083 3.611-.028 5.679-.139 6.201-2.096 1.684-6.313-.646-13.831-6.081-19.62-8.183-8.718-21.216-12.05-35.757-9.142-18.456 3.691-39.062 22.372-62.922 44.002-32.598 29.552-73.168 66.33-123.084 76-43.78 8.479-91.14-7.143-148.78-33.211-6-2.709-12.271-5.693-18.648-8.873-17.456 12.044-43.01 38.552-66.869 69.384-11.008 14.234-21.262 28.857-29.653 42.288-8.523 13.632-15.174 26.082-19.271 36.07z" fill="#112c41"/><path d="M825.919 393.197a1 1 0 0 1-.915-.595c-5.189-11.713-22.293-21.099-38.539-15.842a1 1 0 1 1-.615-1.902c8.194-2.653 17.168-2 25.269 1.84 7.154 3.391 13.029 9.033 15.714 15.093a.999.999 0 0 1-.914 1.406zm-73.884 81.798a1 1 0 0 1-.769-1.639c1.679-2.021 3.679-4.342 5.994-7.03 10.462-12.144 26.272-30.496 35.773-48.605a1 1 0 0 1 1.771.929c-9.607 18.312-25.507 36.769-36.029 48.982-2.309 2.68-4.303 4.995-5.971 7.002a.999.999 0 0 1-.769.361z" fill="#112c41"/><path d="m609.091 192.12 16.968-7.138c6.206-2.62 9.847-6.33 11.457-10.59 1.602-4.257 1.232-9.169-.941-14.377-1.042-2.465-20.849-49.296-39.232-92.998-9.111-21.661-17.61-41.949-22.677-54.18-2.307-5.464-5.889-8.976-10.217-10.68-4.335-1.701-9.459-1.577-14.707.631l-16.968 7.138c5.248-2.208 10.372-2.332 14.707-.631 4.327 1.704 7.91 5.216 10.217 10.68 5.067 12.231 13.566 32.519 22.677 54.18 18.383 43.703 38.19 90.534 39.232 92.998 2.173 5.208 2.543 10.12.941 14.377-1.609 4.261-5.251 7.97-11.457 10.59z" fill="#9797f7"/><path d="M609.092 193.114a.993.993 0 0 1-.387-1.909l.001-.001.008-.003c5.621-2.375 9.29-5.748 10.905-10.022 1.499-3.983 1.187-8.574-.928-13.643A58815.474 58815.474 0 0 1 579.46 74.54c-9.892-23.515-17.946-42.758-22.679-54.185-2.126-5.036-5.378-8.448-9.663-10.136-4.223-1.658-9.05-1.443-13.958.622a.993.993 0 1 1-.77-1.832l16.968-7.137c5.395-2.27 10.739-2.492 15.455-.64 4.734 1.865 8.457 5.744 10.769 11.219 4.742 11.446 12.795 30.686 22.678 54.181a57651.937 57651.937 0 0 0 39.232 92.997c2.319 5.556 2.639 10.64.956 15.114-1.816 4.807-5.854 8.56-12 11.155l-16.97 7.139a1.018 1.018 0 0 1-.386.077zM541.951 7.144c2.04.082 4.016.49 5.893 1.227 4.734 1.865 8.458 5.744 10.769 11.219 4.735 11.429 12.788 30.668 22.678 54.181 17.924 42.611 37.104 87.965 39.232 92.997 2.319 5.556 2.64 10.639.956 15.114-.741 1.961-1.852 3.747-3.324 5.35l7.521-3.164c5.625-2.375 9.297-5.748 10.913-10.025 1.499-3.983 1.187-8.574-.928-13.643-2.131-5.038-21.35-50.487-39.231-92.996-9.885-23.499-17.939-42.742-22.68-54.185-2.126-5.036-5.378-8.448-9.663-10.136-4.223-1.658-9.05-1.443-13.958.622z" fill="#112c41"/><path d="M544.617 216.363c3.456.446 7.31-.204 11.361-1.904a7785.569 7785.569 0 0 0 19.29-8.105c7.914-3.327 16.377-6.886 22.847-9.618 3.24-1.356 5.979-2.517 7.914-3.327 1.942-.818 3.052-1.283 3.059-1.29 6.208-2.62 9.848-6.325 11.458-10.588 1.603-4.256 1.234-9.165-.94-14.375-1.042-2.469-20.844-49.297-39.233-92.995-9.107-21.669-17.609-41.952-22.677-54.184-2.308-5.465-5.885-8.978-10.217-10.677-4.339-1.705-9.458-1.581-14.709.624a592.23 592.23 0 0 1-8.279 3.536c-1.179.497-2.4 1.01-3.648 1.539-9.324 3.885-20.44 8.467-29.749 12.379-1.512.641-2.975 1.258-4.376 1.851-2.711 1.16-5.194 2.217-7.314 3.156-5.676 2.495-9.513 5.522-11.311 9.413-.909 1.956-1.332 4.15-1.221 6.708.105 2.579.752 5.513 2.016 8.899 5.544 14.85 13.952 35.399 23.067 57.061 13.772 32.753 29.17 68.031 38.818 90.042 1.315 2.987 2.883 5.366 4.636 7.184 2.648 2.72 5.738 4.225 9.208 4.671z" fill="#fff"/><path d="M546.801 217.501c-.785 0-1.556-.049-2.312-.146-3.766-.483-7.062-2.154-9.796-4.967-1.883-1.954-3.509-4.469-4.835-7.479-5.811-13.256-23.491-53.592-38.825-90.057-10.388-24.69-18.154-43.901-23.081-57.099-1.286-3.446-1.966-6.458-2.079-9.208-.116-2.673.313-5.019 1.313-7.17 1.839-3.979 5.704-7.22 11.815-9.907 1.859-.824 4-1.739 6.33-2.735l5.373-2.277c5.9-2.48 12.523-5.227 18.957-7.896 3.722-1.543 7.38-3.061 10.798-4.485l3.645-1.537a596.652 596.652 0 0 0 8.267-3.531c5.412-2.273 10.76-2.492 15.475-.639 4.732 1.856 8.457 5.735 10.772 11.218 4.48 10.812 12.109 29.041 22.678 54.186a65033.949 65033.949 0 0 0 38.004 90.087l1.228 2.907c2.319 5.557 2.64 10.642.955 15.116-1.815 4.807-5.855 8.561-12.005 11.157l-.004-.009c-.259.123-.757.333-1.8.771l-4.188 1.761c-1.463.617-3.143 1.324-4.984 2.095-6.468 2.731-14.931 6.291-22.846 9.618a8209.592 8209.592 0 0 1-19.292 8.106c-3.359 1.41-6.565 2.12-9.563 2.12zM541.174 9.125c-2.587 0-5.289.575-8.016 1.72a584.5 584.5 0 0 1-8.28 3.537l-3.645 1.537c-3.424 1.426-7.083 2.944-10.806 4.489a4571.269 4571.269 0 0 0-18.945 7.891l-5.364 2.273a537.422 537.422 0 0 0-6.308 2.726c-5.647 2.483-9.182 5.399-10.809 8.918-.862 1.855-1.231 3.898-1.129 6.245.104 2.538.743 5.348 1.954 8.593 4.918 13.172 12.673 32.357 23.051 57.022 15.328 36.452 33.004 76.777 38.812 90.028 1.23 2.792 2.724 5.111 4.441 6.892 2.443 2.513 5.261 3.944 8.614 4.375h.001c3.286.423 6.935-.192 10.846-1.833a8297.047 8297.047 0 0 0 19.289-8.105c7.915-3.328 16.376-6.887 22.847-9.619 1.843-.771 3.521-1.478 4.982-2.094l4.189-1.762c1.024-.431 1.638-.689 1.759-.742l.042-.019c5.626-2.375 9.298-5.746 10.912-10.02 1.5-3.98 1.188-8.569-.927-13.636l-1.226-2.902a63799.468 63799.468 0 0 1-38.005-90.09c-10.57-25.148-18.2-43.38-22.679-54.189-2.128-5.041-5.378-8.45-9.658-10.128a16.126 16.126 0 0 0-5.942-1.107z" fill="#112c41"/><path d="m496.133 35.384 26.395-11.046c2.067-.866 2.953-3.437 1.99-5.754l-1.59-4.396c-9.324 3.885-20.44 8.467-29.749 12.379-1.512.641-2.975 1.258-4.376 1.851l1.834 4.32c.978 2.33 3.435 3.505 5.496 2.646z" fill="#9797f7"/><path d="M494.736 36.656c-2.062 0-4.098-1.349-5.016-3.535l-1.832-4.316a.994.994 0 0 1 .528-1.303l4.376-1.85c5.901-2.48 12.525-5.228 18.959-7.897 3.721-1.543 7.379-3.061 10.796-4.484a.99.99 0 0 1 1.316.579l1.59 4.396c1.153 2.771.021 5.935-2.54 7.009L496.516 36.3h-.001a4.582 4.582 0 0 1-1.779.356zm1.397-1.272h.01zm-6.027-6.44 1.445 3.404c.763 1.817 2.646 2.766 4.2 2.118l26.394-11.045c1.554-.651 2.207-2.65 1.456-4.457l-1.252-3.46a8468.326 8468.326 0 0 1-9.837 4.085c-6.431 2.668-13.052 5.414-18.947 7.892z" fill="#112c41"/><path d="m558.085 60.804-64.34 27.26c-1.357.58-1.938 2.28-1.293 3.814l26.51 62.526c.64 1.521 2.26 2.291 3.614 1.722l64.34-27.26c1.357-.58 1.938-2.28 1.289-3.803l-26.506-62.538c-.641-1.521-2.261-2.291-3.614-1.721z" fill="#badcee"/><path d="M486.588 75.15a1.047 1.047 0 0 1-.409-2.01l67.308-28.517a1.047 1.047 0 0 1 .816 1.927l-67.308 28.517a1.043 1.043 0 0 1-.407.083zm40.914 97.811a1.047 1.047 0 0 1-.409-2.01l67.308-28.517a1.046 1.046 0 0 1 .816 1.927l-67.308 28.517a1.03 1.03 0 0 1-.407.083z" fill="#afaef8"/><path d="M466.96 185.925c9.778-25.107 9.778-56.107 16.778-78.107 3.638-11.435 15.721-18.418 28 0 14 21 6 49 6 49s23 26 15 64" fill="#ffd6c0"/><path d="M532.739 221.818a1 1 0 0 1-.979-1.206c7.806-37.079-14.544-62.875-14.771-63.131a1.002 1.002 0 0 1-.213-.937c.079-.276 7.703-27.811-5.87-48.171-5.206-7.809-10.722-11.551-15.946-10.81-4.462.628-8.396 4.674-10.269 10.559-3.052 9.59-4.756 20.861-6.56 32.793-2.319 15.336-4.717 31.194-10.239 45.374a1 1 0 0 1-1.864-.725c5.441-13.973 7.822-29.719 10.125-44.947 1.816-12.013 3.532-23.359 6.632-33.101 2.107-6.624 6.666-11.196 11.896-11.933 4.211-.599 10.736.951 17.889 11.681 13.04 19.56 7.267 45.338 6.266 49.309 2.882 3.527 22.344 28.999 14.88 64.452a1 1 0 0 1-.977.793z" fill="#112c41"/></svg></g></svg>