<?xml version="1.0"?><svg xmlns="http://www.w3.org/2000/svg"  viewBox="0 0 24 24" width="40px" height="40px">    <path d="M 4 4 C 2.895 4 2 4.895 2 6 L 2 18 C 2 19.105 2.895 20 4 20 L 9.171875 20 L 10.585938 18.585938 L 11.171875 18 L 4 18 L 4 8.0019531 L 12 13 L 20 8.0019531 L 20 15 L 22 15 L 22 6 C 22 4.895 21.105 4 20 4 L 4 4 z M 4 6 L 20 6 L 20 6.0019531 L 12 11 L 4 6.0019531 L 4 6 z M 15 17 L 12 20 L 14 20 L 14 24 L 16 24 L 16 20 L 18 20 L 15 17 z M 20 17 L 20 21 L 18 21 L 21 24 L 24 21 L 22 21 L 22 17 L 20 17 z"/></svg>