<svg xmlns="http://www.w3.org/2000/svg" xmlns:xlink="http://www.w3.org/1999/xlink" viewBox="0,0,256,256" width="30px" height="30px" fill-rule="nonzero"><g fill="none" fill-rule="nonzero" stroke="none" stroke-width="1" stroke-linecap="butt" stroke-linejoin="miter" stroke-miterlimit="10" stroke-dasharray="" stroke-dashoffset="0" font-family="none" font-weight="none" font-size="none" text-anchor="none" style="mix-blend-mode: normal"><g transform="scale(6.4,6.4)"><path d="M20,37.5c-9.649,0 -17.5,-7.851 -17.5,-17.5c0,-9.649 7.851,-17.5 17.5,-17.5c9.649,0 17.5,7.851 17.5,17.5c0,9.649 -7.851,17.5 -17.5,17.5z" fill="#6667ab"></path><path d="M20,3c9.374,0 17,7.626 17,17c0,9.374 -7.626,17 -17,17c-9.374,0 -17,-7.626 -17,-17c0,-9.374 7.626,-17 17,-17M20,2c-9.941,0 -18,8.059 -18,18c0,9.941 8.059,18 18,18c9.941,0 18,-8.059 18,-18c0,-9.941 -8.059,-18 -18,-18z" fill="#111111"></path><path d="M9,19h22v2h-22z" fill="#ffffff"></path><path d="M21,9v22h-2v-22z" fill="#ffffff"></path></g></g></svg>