<svg xmlns="http://www.w3.org/2000/svg"  viewBox="0 0 50 50" width="25px" height="25px"><path d="M 19 3 L 19 7 L 12 7 C 9.242188 7 7 9.242188 7 12 L 7 20 L 2 20 L 2 30 L 14 30 L 14 20 L 9 20 L 9 12 C 9 10.347656 10.347656 9 12 9 L 19 9 L 19 13 L 31 13 L 31 3 Z M 33 7 L 33 9 L 38 9 C 39.652344 9 41 10.347656 41 12 L 41 20 L 36 20 L 36 30 L 48 30 L 48 20 L 43 20 L 43 12 C 43 9.242188 40.757813 7 38 7 Z M 7 32 L 7 38 C 7 40.757813 9.242188 43 12 43 L 19 43 L 19 47 L 31 47 L 31 37 L 19 37 L 19 41 L 12 41 C 10.347656 41 9 39.652344 9 38 L 9 32 Z M 41 32 L 41 38 C 41 39.652344 39.652344 41 38 41 L 33 41 L 33 43 L 38 43 C 40.757813 43 43 40.757813 43 38 L 43 32 Z"/></svg>