<svg xmlns="http://www.w3.org/2000/svg"  viewBox="0 0 50 50" width="30px" height="30px"><path d="M 13 5 A 1 1 0 0 0 13 7 A 1 1 0 0 0 13 5 z M 37 5 A 1 1 0 0 0 37 7 A 1 1 0 0 0 37 5 z M 25 6 C 21.141 6 18 9.141 18 13 C 18 15.288 19.136 17.436281 21 18.738281 L 21 21 C 21 22.379846 21.942015 23.534358 23.212891 23.882812 C 23.539538 24.542854 24.213344 25 25 25 C 25.786656 25 26.460462 24.542854 26.787109 23.882812 C 28.057985 23.534358 29 22.379846 29 21 L 29 18.738281 C 30.864 17.435281 32 15.288 32 13 C 32 9.141 28.859 6 25 6 z M 16 7 A 1 1 0 0 0 16 9 A 1 1 0 0 0 16 7 z M 34 7 A 1 1 0 0 0 34 9 A 1 1 0 0 0 34 7 z M 8 8 C 5.8026661 8 4 9.8026661 4 12 L 4 34 C 4 34.730688 4.2136476 35.40837 4.5605469 36 L 2 36 C 1.448 36 1 36.448 1 37 C 1 39.757 3.243 42 6 42 L 44 42 C 46.757 42 49 39.757 49 37 C 49 36.448 48.552 36 48 36 L 45.439453 36 C 45.786352 35.40837 46 34.730688 46 34 L 46 12 C 46 9.8026661 44.197334 8 42 8 L 40 8 L 40 10 L 42 10 C 43.116666 10 44 10.883334 44 12 L 44 34 C 44 35.116666 43.116666 36 42 36 L 8 36 C 6.8833339 36 6 35.116666 6 34 L 6 12 C 6 10.883334 6.8833339 10 8 10 L 10 10 L 10 8 L 8 8 z M 25 8 C 27.757 8 30 10.243 30 13 C 30 14.774 29.041047 16.433172 27.498047 17.326172 L 27 17.615234 L 27 19 L 23 19 L 23 17.615234 L 22.501953 17.326172 C 20.958953 16.433172 20 14.774 20 13 C 20 10.243 22.243 8 25 8 z M 11 12 A 1 1 0 0 0 11 14 A 1 1 0 0 0 11 12 z M 15 12 A 1 1 0 0 0 15 14 A 1 1 0 0 0 15 12 z M 35 12 A 1 1 0 0 0 35 14 A 1 1 0 0 0 35 12 z M 39 12 A 1 1 0 0 0 39 14 A 1 1 0 0 0 39 12 z M 16 17 A 1 1 0 0 0 16 19 A 1 1 0 0 0 16 17 z M 34 17 A 1 1 0 0 0 34 19 A 1 1 0 0 0 34 17 z M 13 19 A 1 1 0 0 0 13 21 A 1 1 0 0 0 13 19 z M 37 19 A 1 1 0 0 0 37 21 A 1 1 0 0 0 37 19 z"/></svg>