<svg xmlns="http://www.w3.org/2000/svg" viewBox="0 0 1200 1200" width="1200" height="1200"><g transform="translate(242.0 214.0) rotate(0.0 118.5 171.5) scale(1.3560291803747675 1.3561600506088882)"><svg width="174.775" height="252.92" viewBox="0 0 174.775 252.92"><path d="M158.744 35.459c-11.078-15.765-26.348-25.466-42.582-30.483C78.914-6.535 38.092 7.54 15.851 39.56 6.157 53.517.111 70.569 1.107 89.81c1.586 30.758 20.717 58.543 49.122 72.859a84.838 84.838 0 0 1 13.065 8.161c10.904 8.299 19.616 19.215 25.011 32.012l1.045.793c7.051.825 21.438 1.499 37.388-5.228 17.306-4.696 28.388-14.608 33.186-19.446-.141-.523-.276-1.058-.417-1.581-3.4-13.15-3.211-26.807.189-39.788a84.77 84.77 0 0 1 5.259-14.479c13.555-28.783 11.488-62.451-6.211-87.654z" fill="#fff"/><g fill="#1d0333"><path d="M98.096 205.142c-3.293 0-6.276-.211-8.862-.514a.994.994 0 0 1-.488-.197l-1.045-.793a1 1 0 0 1-.317-.408c-5.202-12.339-13.742-23.268-24.695-31.604a83.934 83.934 0 0 0-12.911-8.065C20.73 148.922 1.698 120.682.108 89.862-.818 71.97 4.341 54.378 15.03 38.99 26.065 23.103 41.633 11.349 60.053 4.998 78.475-1.353 97.98-1.69 116.457 4.02c17.897 5.531 32.804 16.204 43.105 30.863 17.74 25.262 20.153 59.233 6.297 88.655a83.87 83.87 0 0 0-5.195 14.306c-3.407 13.004-3.472 26.588-.189 39.284l.414 1.571a.998.998 0 0 1-.255.965c-6.542 6.596-17.674 15.36-33.57 19.689-10.639 4.477-20.762 5.788-28.968 5.789zm-8.359-2.469c8.812.996 22.229.878 36.612-5.188a.953.953 0 0 1 .127-.044c15.18-4.119 25.906-12.401 32.335-18.781l-.27-1.022c-3.371-13.034-3.305-26.967.188-40.301a86.044 86.044 0 0 1 5.321-14.65c13.551-28.775 11.204-61.979-6.124-86.655-10.045-14.292-24.589-24.702-42.059-30.1C97.795.347 78.72.678 60.705 6.889S27.463 24.595 16.672 40.13C6.24 55.152 1.202 72.313 2.106 89.759c1.552 30.104 20.164 57.699 48.573 72.017a85.94 85.94 0 0 1 13.22 8.259c11.158 8.491 19.875 19.612 25.223 32.171z"/><path d="M163.769 191.435 93.276 215.74a6.048 6.048 0 0 1-7.689-3.746l-1.221-3.541a6.048 6.048 0 0 1 3.746-7.689l70.493-24.305a6.048 6.048 0 0 1 7.689 3.746l1.221 3.541a6.048 6.048 0 0 1-3.746 7.689z"/><path d="M91.298 217.074a7.02 7.02 0 0 1-3.081-.716 7 7 0 0 1-3.576-4.039l-1.221-3.541a7.055 7.055 0 0 1 4.365-8.96l70.493-24.305c3.672-1.266 7.693.691 8.961 4.365l1.221 3.542c1.267 3.673-.691 7.693-4.365 8.96l-70.493 24.305c-.753.26-1.53.389-2.304.389zm69.274-39.946c-.544 0-1.098.089-1.641.276l-70.493 24.305a5.054 5.054 0 0 0-3.127 6.417l1.221 3.541a5.013 5.013 0 0 0 2.562 2.893 5.014 5.014 0 0 0 3.856.234l70.493-24.305a5.054 5.054 0 0 0 3.127-6.417l-1.221-3.542a5.059 5.059 0 0 0-4.777-3.402zm3.197 14.307h.01z"/><path d="m164.968 207.778-62.564 21.571a6.048 6.048 0 0 1-7.689-3.746l-1.221-3.541a6.048 6.048 0 0 1 3.746-7.689l62.564-21.571a6.048 6.048 0 0 1 7.689 3.746l1.221 3.541a6.047 6.047 0 0 1-3.746 7.689z"/><path d="M100.438 230.681c-2.925 0-5.664-1.835-6.669-4.751l-1.221-3.541a7.055 7.055 0 0 1 4.365-8.96l62.564-21.572a7.056 7.056 0 0 1 8.961 4.366l1.221 3.541c1.267 3.674-.691 7.694-4.365 8.961l-62.564 21.571a7.055 7.055 0 0 1-2.292.385zm61.333-37.21a5.03 5.03 0 0 0-1.641.276l-62.564 21.572a5.054 5.054 0 0 0-3.127 6.417l1.221 3.541a5.053 5.053 0 0 0 6.418 3.127l62.564-21.571a5.054 5.054 0 0 0 3.127-6.418l-1.221-3.541a5.058 5.058 0 0 0-4.777-3.403zm3.197 14.307h.01z"/><path d="m165.727 224.273-53.755 18.534a6.048 6.048 0 0 1-7.689-3.746l-1.221-3.541a6.048 6.048 0 0 1 3.746-7.689l53.755-18.534a6.048 6.048 0 0 1 7.689 3.746l1.221 3.541a6.047 6.047 0 0 1-3.746 7.689z"/><path d="M109.994 244.141a7.016 7.016 0 0 1-3.081-.716 7 7 0 0 1-3.576-4.039l-1.221-3.541a7.004 7.004 0 0 1 .327-5.385 7.004 7.004 0 0 1 4.038-3.576l53.755-18.534a7 7 0 0 1 5.385.327 7 7 0 0 1 3.576 4.039l1.221 3.541a7.055 7.055 0 0 1-4.365 8.96l-53.755 18.534c-.753.261-1.53.39-2.304.39zm52.544-34.177c-.554 0-1.11.092-1.649.278l-53.755 18.534c-1.274.439-2.302 1.349-2.893 2.561s-.674 2.582-.234 3.856l1.221 3.541a5.013 5.013 0 0 0 2.562 2.893c1.211.59 2.58.674 3.856.234l53.755-18.534a5.054 5.054 0 0 0 3.127-6.417l-1.221-3.541a5.013 5.013 0 0 0-2.562-2.893 5.037 5.037 0 0 0-2.207-.512zm3.189 14.309h.01z"/><path d="m151.958 245.777-15.891 5.479c-6.316 2.178-13.201-1.177-15.378-7.493l-1.221-3.541 38.762-13.365 1.221 3.541c2.178 6.316-1.177 13.201-7.493 15.379z"/><path d="M132.136 252.917c-5.435 0-10.524-3.41-12.393-8.828l-1.221-3.542a1 1 0 0 1 .619-1.271l38.762-13.364a1 1 0 0 1 1.271.619l1.222 3.541c2.354 6.827-1.286 14.296-8.112 16.65l-15.891 5.479a13.022 13.022 0 0 1-4.257.716zm-11.396-12.075.895 2.596c1.994 5.784 8.324 8.866 14.107 6.873l15.891-5.479c5.784-1.995 8.867-8.323 6.874-14.107l-.896-2.595zm31.218 4.935h.01zm-38.989-52.583a.999.999 0 0 1-.945-.675c-6.817-19.837-17.43-37.251-31.544-51.756a134.927 134.927 0 0 0-20.654-17.339 1 1 0 0 1 1.127-1.653 136.964 136.964 0 0 1 20.961 17.597c14.321 14.718 25.088 32.382 32.001 52.5a1 1 0 0 1-.946 1.326z"/><path d="M70.545 139.35a9.585 9.585 0 0 1-3.267-.562c-5.526-1.99-8.768-8.695-7.883-16.306a.993.993 0 0 1 1.108-.877 1 1 0 0 1 .878 1.108c-.765 6.577 2 12.546 6.574 14.193 3.393 1.222 6.487-.411 6.831-.601 2.142-1.188 3.642-3.373 4.571-5.868a25.055 25.055 0 0 1-2.596-2.5c-2.663-2.962-5.329-7.436-4.076-10.297.471-1.074 1.519-1.959 2.874-2.431 1.369-.475 2.753-.429 3.797.126 1.952 1.039 3.14 4.119 3.176 8.24a22.156 22.156 0 0 1-.826 6.139c2.231 1.598 4.625 2.542 6.477 1.955 2.15-.682 3.681-3.462 4.526-6.627a26.66 26.66 0 0 1-2.047-1.829c-2.9-2.873-5.893-7.24-4.778-10.092.423-1.081 1.454-1.981 2.832-2.471 1.394-.496 2.843-.444 3.879.143 2.715 1.537 3.182 6.833 2.757 10.9a26.163 26.163 0 0 1-.392 2.538c2.788 1.987 5.892 3.2 8.129 2.3 1.892-.76 3.215-3.031 3.987-5.7a25.758 25.758 0 0 1-2.543-2.307c-2.841-2.942-5.737-7.4-4.546-10.281.44-1.066 1.468-1.955 2.817-2.437 1.373-.49 2.818-.447 3.864.115 2.694 1.446 3.4 6.456 3.188 10.307a24.46 24.46 0 0 1-.505 3.792c2.434 1.683 5.043 2.667 6.975 1.945 1.648-.615 2.868-2.485 3.657-4.782a21.992 21.992 0 0 1-4.938-5.344c-2.082-3.207-2.762-6.276-1.818-8.209.528-1.084 1.662-1.996 3.033-2.438 1.311-.424 2.632-.36 3.624.173 2.747 1.474 3.406 6.634 3.137 10.605a24.479 24.479 0 0 1-.698 4.401c2.12 1.373 4.519 2.24 6.957 2.16.771-.026 4.729-.304 6.853-3.206 2.602-3.554 2.008-10.695-4.215-16.929a.999.999 0 0 1 .002-1.414.998.998 0 0 1 1.414.001c6.151 6.163 8.049 14.556 4.412 19.524-2.604 3.557-7.086 3.979-8.397 4.023-2.785.096-5.381-.791-7.651-2.17-.965 2.543-2.478 4.661-4.671 5.479-2.539.946-5.513-.027-8.225-1.771-.938 2.866-2.531 5.34-4.966 6.318-2.884 1.159-6.34-.038-9.4-2.077-1.024 3.382-2.843 6.377-5.647 7.266-2.453.779-5.237-.192-7.76-1.886-1.067 2.619-2.763 4.972-5.271 6.364-.309.172-2.441 1.297-5.213 1.297zm6.874-22.464c-.38 0-.794.071-1.201.213-.808.28-1.459.795-1.699 1.344-.673 1.536.931 5.043 3.731 8.157.54.601 1.127 1.188 1.743 1.738.379-1.588.554-3.22.54-4.745-.028-3.174-.897-5.844-2.115-6.492-.27-.143-.617-.215-.999-.215zm13.198-4.573c-.388 0-.813.074-1.229.222-.806.287-1.434.79-1.639 1.314-.5 1.28.845 4.499 4.323 7.943.355.353.728.699 1.112 1.034.073-.449.133-.897.18-1.341.447-4.285-.307-8.133-1.754-8.953-.259-.146-.607-.219-.993-.219zm14.101-4.848c-.391 0-.818.075-1.239.226-.795.284-1.424.789-1.643 1.317-.634 1.535 1.145 5.029 4.138 8.128.502.521 1.04 1.029 1.602 1.51.145-.844.239-1.696.285-2.527.228-4.101-.671-7.648-2.136-8.435-.273-.146-.622-.219-1.007-.219zm13.248-4.551c-.343 0-.716.061-1.091.182-.851.274-1.56.815-1.851 1.412-.613 1.258.054 3.709 1.699 6.244a19.73 19.73 0 0 0 3.846 4.323c.231-1.067.384-2.169.457-3.239.283-4.174-.614-7.917-2.087-8.708-.265-.142-.601-.214-.973-.214z"/><path d="M134.112 185.904c-.414 0-.802-.26-.945-.673-6.955-20.102-9.362-40.648-7.154-61.068a136.975 136.975 0 0 1 5.661-26.775 1 1 0 0 1 1.906.607 134.992 134.992 0 0 0-5.579 26.384c-2.176 20.125.198 40.378 7.057 60.199a1 1 0 0 1-.946 1.326z"/></g></svg></g><g transform="translate(145.0 108.0) rotate(0.0 204.0 141.5) scale(1.35601332083674 1.3606946755007645)"><svg width="300.882" height="207.982" viewBox="0 0 300.882 207.982"><g fill="#1d0333"><path d="M124.911 59.836a.999.999 0 0 1-.945-.674L105.438 5.424a1 1 0 1 1 1.89-.652l18.528 53.738a1 1 0 0 1-.945 1.326zM68.864 83.103a.992.992 0 0 1-.677-.265L37.841 54.86a1 1 0 0 1 1.355-1.471l30.346 27.979a1 1 0 0 1-.678 1.735zM1 132.129a1 1 0 0 1-.01-2l44.199-.454h.01a1 1 0 0 1 .01 2l-44.199.454H1zm17.283 75.853a1.002 1.002 0 0 1-.392-1.921l36.97-15.704a1 1 0 1 1 .783 1.841l-36.97 15.704a.991.991 0 0 1-.391.08zM183.085 42.736a1 1 0 0 1-.988-1.161L188.751.839a1 1 0 1 1 1.974.322l-6.654 40.736a1 1 0 0 1-.986.839zm48.572 23.665a1 1 0 0 1-.608-1.794l35.087-26.883a1 1 0 0 1 1.216 1.588l-35.087 26.883a.998.998 0 0 1-.608.206zm29.433 53.921a1 1 0 0 1-.258-1.966l38.792-10.418a1 1 0 1 1 .518 1.932l-38.792 10.418a1.015 1.015 0 0 1-.26.034z"/></g></svg></g><g transform="translate(180.0 258.0) rotate(0.0 445.5 409.0) scale(1.3590977177530805 1.3597707340102265)"><svg width="655.582" height="601.572" viewBox="0 0 655.582 601.572"><path d="M562.123 547.32c-12.742.055-25.473.121-38.214.176-7.907.033-15.803.066-23.699.11-78.576.352-157.14.716-235.705 1.079 7.918-28.424 19.702-86.119 2.72-154.927-11.013-44.59-30.208-78.014-44.855-99.202 78.631-16.695 157.25-33.38 235.87-50.075 28.457 49.799 58.786 114.345 80.778 192.766.661 2.346 1.299 4.68 1.927 7.004.947 3.48 1.861 6.938 2.742 10.374a848.218 848.218 0 0 1 18.436 92.695z" fill="#759ef2"/><path d="M654.582 549.133H1a1 1 0 1 1 0-2h653.582a1 1 0 1 1 0 2z" fill="#1d0333"/><path d="M410.803 243.381c30.578-3.758 55.71-1.577 72.766 1.101 21.539 3.382 44.167 7.185 67.177 23.127 11.027 7.639 20.308 14.068 26.43 26.43 11.177 22.567 2.437 48.553-4.405 69.38-4.731 14.4-9.748 23.891-13.215 30.836-24.767 49.62-16.706 62.2-39.646 114.532-21.306 48.605-40.675 66.078-50.658 73.785-8.733 6.742-26.569 20.116-48.456 17.62-3.839-.514-9.37-1.638-15.418-4.405-32.681-14.952-41.712-60.141-51.76-128.849a3029.032 3029.032 0 0 1-18.722-156.38l53.962-13.215 57.266 151.975c5.463-21.2 12.121-58.284 4.954-103.536-7.714-48.719-27.803-83.847-40.275-102.401z" fill="#759ef2"/><path d="M412.251 458.547a2983.012 2983.012 0 0 1-39.91 31.518c-97.473 75.657-66.208 41.859-128.849 88.102-7.918 5.837-23.413 17.455-45.152 18.722-5.033.297-19.9 1.156-32.058-6.519-21.728-13.733-22.202-47.167-23.105-67.948-1.971-45.317 13.59-52.453 27.18-129.102 4.207-23.71 6.189-42.597 14.955-74.754 11.618-42.652 19.713-51.892 25.814-57.068 12.83-10.891 27.763-13.105 70.669-13.59 26.254-.308 61.407.055 103.277 2.709-57.233 20.946-81.164 48.841-92.408 70.668-9.647 18.733-8.656 30.516-26.122 69.457a782.312 782.312 0 0 1-2.412 5.286c-12.444 26.904-14.68 34.47-19.03 47.564a344.313 344.313 0 0 0-4.614 15.076 355.268 355.268 0 0 0-2.5 9.372c2.907-1.454 10.253-5.121 13.215-6.608 48.247-24.14 54.601-27.499 71.362-35.505 11.442-5.462 11.068-5.132 27.697-13.072a3460.62 3460.62 0 0 0 37.531-18.182c8.161 21.288 16.311 42.575 24.46 63.874z" fill="#759ef2"/><path d="M300.874 266.337c-4.034-.657-16.687-3.098-18.404-9.815-1.893-7.407 9.767-19.032 30.673-26.992a61.999 61.999 0 0 1 7.362-11.042c21.267-25.466 65.804-36.112 98.153-18.404 5.507 3.015 14.708 9.067 23.311 20.858 17.299 10.159 20.454 16.05 19.631 19.631-1.717 7.465-20.457 3.697-40.488 14.723-22.492 12.38-21.906 29.829-36.807 38.034-13.071 7.196-36.78 6.56-83.431-26.993z" fill="#759ef2"/><path d="M368.354 296.783a1 1 0 0 1-.666-1.746c10.759-9.609 22.411-17.099 34.632-22.259.631-.267 1.528-.64 2.649-1.104 8.826-3.663 32.274-13.393 47.544-22.153 2.29-1.313 7.651-4.389 8.092-9.042.295-3.12-1.695-5.97-3.416-7.812a1 1 0 0 1 1.461-1.365c2.87 3.07 4.234 6.309 3.945 9.364-.537 5.686-6.528 9.122-9.087 10.589-15.381 8.825-38.914 18.59-47.773 22.267-1.115.463-2.009.833-2.638 1.099-12.017 5.075-23.482 12.446-34.077 21.909a1 1 0 0 1-.666.253zm-22.087-3.681a.999.999 0 0 1-.649-.239 106.96 106.96 0 0 0-13.368-9.725c-6.728-4.137-13.988-7.544-35.464-17.115l-.216-.096c-11.115-4.953-16.188-7.214-16.326-11.829-.144-4.798 4.016-8.414 5.293-9.407a1 1 0 1 1 1.228 1.578c-1.091.848-4.638 3.913-4.521 7.769.1 3.36 5.126 5.601 15.141 10.062l.216.097c21.569 9.612 28.871 13.041 35.697 17.238a108.882 108.882 0 0 1 13.619 9.906 1 1 0 0 1-.65 1.761z" fill="#1d0333"/><path d="M383.354 284.128c-3.574 2.377-9.113 6.329-15.418 12.114 21.702-11.105 39.379-15.617 51.946-17.636 8.239-1.323 25.272-5.842 34.354-12.269 8.748-6.19 8.036-10.019 15.95-14.723 10.161-6.039 21.46-5.746 29.274-4.613-3.693-.969-7.619-1.853-12.097-2.748-8.38-1.656-17.336-2.49-26.428-2.712-.147.479-.331.982-.564 1.485-1.63 3.52-4.532 6.202-11.042 9.815-4.788 2.657-7.325 3.656-7.325 3.656-20.319 8.001-41.935 16.514-58.65 27.631zm-53.034-33.741c-.257-2.932-.11-6.992 2.454-9.815 2.562-2.821 5.519-2.184 9.815-3.681 9.462-3.296 8.044-10.612 17.177-14.723 6.329-2.849 7.386.506 17.177-2.454 8.768-2.65 12.045-6.588 14.723-4.908 3.649 2.289-.791 10.629 3.681 14.723 3.877 3.55 10.134-.046 13.496 3.681 2.08 2.306 1.76 5.984 1.227 8.588l-30.673 24.538-40.488-7.361-8.589-8.588z" fill="#1d0333"/><path d="M397.67 251.09a150.737 150.737 0 0 0-38.544 41.849 61.04 61.04 0 0 0-7.709-18.722 60.707 60.707 0 0 0-8.81-11.013c-3.917-8.158-6.287-15.093-7.709-19.823-2.874-9.557-4.13-19.363-6.641-38.974-.745-5.821-1.442-11.891-1.839-19.536-.22-4.24-.319-8.237-.33-11.971l61.671-33.038c-4.403 13.734-10.652 39.973-4.405 71.583 3.29 16.645 9.104 30.012 14.316 39.645z" fill="#ffb5a6"/><path d="M286.169 161.511c.589 1.497 6.233 15.226 19.557 20.968 28.624 12.343 79.602-17.803 88.056-58.708.883-4.306 7.104-36.967-15.386-54.5-16.846-13.153-40.783-10.785-55.898-1.411-8.048 5.006-12.76 12.429-18.772 25.127a285.524 285.524 0 0 0-2.294 4.945c-1.276 2.797-2.625 5.816-4.086 9.079-2.196 4.895-4.221 9.423-6.012 13.668-1.865 4.466-3.46 8.588-4.699 12.502-3.313 10.442-4.049 19.3-.466 28.33z" fill="#ffb5a6"/><path d="M395.176 118.185c-17.89-1.831-19.581-39.47-40.532-41.93-14.228-1.663-22.265 14.13-32.146 9.784-11.964-5.255-8.651-34.173-8.386-36.339.531-4.374 5.954-42.88 32.146-48.918 15.514-3.578 31.825 5.744 40.532 15.374 5.213 5.758 7.31 11.195 8.987 16.842 1.943 6.513 3.34 13.306 8.386 21.216 1.37 2.138 3.005 4.347 4.99 6.667 9.266 10.832 14.843 10.636 16.772 18.169 4.025 15.78-15.528 40.686-30.749 39.135z" fill="#1d0333"/><path d="M376.288 122.362a65.947 65.947 0 0 1 18.43-7.899c7.506-1.928 16.213-4.164 19.747 0 2.971 3.501 1.256 10.31-1.316 14.481-7.613 12.341-30.995 14.964-36.861 6.582-1.008-1.441-2.844-5.128 0-13.164z" fill="#ffb5a6"/><path d="M392.067 133.949c-.456 0-.918-.021-1.384-.061a.999.999 0 0 1-.91-1.082.985.985 0 0 1 1.082-.91c3.49.301 6.052-.722 7.29-1.777.502-.429.817-.895.843-1.248.084-1.17-2.519-3.653-7.022-4.2a1 1 0 0 1-.544-1.74c1.517-1.349 5.651-4.441 11.242-4.201 1.933.087 3.832.562 5.644 1.41.5.233.716.829.481 1.329s-.829.717-1.329.481a12.867 12.867 0 0 0-4.887-1.223c-3.439-.167-6.292 1.18-8.12 2.393 4.158 1.127 6.685 3.739 6.529 5.895-.065.916-.598 1.823-1.539 2.626-1.734 1.479-4.424 2.308-7.376 2.308zm-32.28 38.433c-1.068 3.799-3.359 6.541-7.896 11.85-8.469 9.9-9.592 11.145-11.85 13.171-4.262 3.821-7.092 5.539-10.352 6.597a22.18 22.18 0 0 1-1.432.407 242.137 242.137 0 0 1-1.839-19.536c5.253-.837 10.858-2.588 16.255-5.903 10.021-6.178 14.768-15.704 17.114-14.471 1.575.804.616 5.693 0 7.885z" fill="#1d0333"/><path d="M404.163 54.214c-4.78 1.901-11.321 3.48-18.77 2.474a35.56 35.56 0 0 1-9.784-2.795c-9.686-4.361-14.759-11.936-16.772-15.374-2.334.936-4.654 1.859-6.988 2.795-4.193-5.129-8.386-10.245-12.579-15.374-4.193 3.257-8.386 6.527-12.579 9.784l12.579-16.772c3.732 4.193 7.45 8.386 11.181 12.579l8.386-8.386c.867 2.11 3.858 8.651 11.181 12.579 1.523.811 10.161 5.437 19.567 1.398a20.553 20.553 0 0 0 6.192-4.123c1.943 6.512 3.341 13.305 8.386 21.215z" fill="#eedcff"/><path d="M358.531 128.144c-.011.187-.176 2.148-1.608 3.128-2.092 1.421-4.68-.749-9.779-2.346a42.91 42.91 0 0 0-1.905-.529c-.617-.132-1.211-.275-1.784-.375-.33-.066-.65-.121-.969-.176-5.506-.881-8.986-.165-11.211-3.183-.11-.165-.253-.341-.374-.54-.286-.429-.562-.947-.595-1.531a1.858 1.858 0 0 1 .011-.551c.407-2.742 5.936-4.956 11.684-4.934.132 0 .275 0 .408.011.573 0 1.134.033 1.707.099h.011c.595.066 1.178.154 1.762.275 6.332 1.258 12.929 6.203 12.642 10.652zm-40.681-11.949c-.011.154-.143 1.696-1.288 2.456-1.553 1.035-3.414-.319-6.883-1.52a38.1 38.1 0 0 0-1.024-.33 24.546 24.546 0 0 0-1.982-.529c-.33-.077-.661-.143-.98-.209-4.901-.914-7.918-.143-9.823-2.665-.066-.088-.132-.187-.209-.286-.198-.286-.418-.628-.54-1.002-.055-.242-.099-.518-.055-.782.341-2.181 4.79-3.91 9.427-3.888.76 0 1.531.055 2.28.165.286.033.573.088.859.143 1.013.198 2.037.518 3.017.914 3.986 1.641 7.389 4.714 7.201 7.533z" fill="#fff"/><path d="M323.175 113.963a75.94 75.94 0 0 1-5.307 5.608c-1.864 1.779-3.828 3.461-5.832 5.067-.994.806-2.013 1.594-2.916 2.415-.433.401-.867.86-1.009 1.202-.082.176-.051.226-.031.304.027.073.134.196.32.317.803.493 2.094.732 3.286.882 1.223.148 2.476.214 3.732.249h.006a1 1 0 1 1-.093 1.998c-1.299-.086-2.6-.204-3.91-.414a17.515 17.515 0 0 1-1.978-.429c-.664-.199-1.339-.419-2.024-.895-.332-.243-.706-.591-.899-1.126-.103-.258-.108-.554-.107-.83.048-.254.102-.539.214-.724.42-.815.96-1.239 1.463-1.696 1.026-.861 2.064-1.597 3.087-2.364 2.049-1.516 4.038-3.09 5.943-4.771a75.08 75.08 0 0 0 5.45-5.33.404.404 0 0 1 .605.537zm43.653 4.03c-1.374.749-4.271-5.221-10.105-9.485-8.306-6.07-17.072-4.716-17.298-7.492-.124-1.521 2.483-3.236 4.59-3.675.645-.134 1.833-.269 4.133.457 2.774.876 3.888 1.97 6.503 3.564 5.503 3.354 7.086 2.478 9.185 5.2 1.182 1.533 1.893 3.384 2.298 4.437.837 2.178.966 3.544 1 4.238.077 1.586.129 2.519-.306 2.756zm-65.397-20.061c2.613-.479 6.233-.92 10.171.16 4.65 1.288 6.883 3.902 8.601 2.736 1.546-2.834 1.092-4.454.822-5.104-1.435-3.399-7.705-3.3-12.465-3.239-2 .025-3.582.221-4.834.503a292.802 292.802 0 0 0-2.295 4.944z" fill="#1d0333"/><ellipse cx="347.736" cy="144.709" fill="#f99282" rx="7.628" ry="11.789" transform="matrix(.11 -.9939 .9939 .11 165.6549 474.4175)"/><path d="M286.635 133.176a15.77 15.77 0 0 0 3.582 1.876c5.718 2.163 11.489.912 12.882-2.787 1.407-3.699-2.097-8.454-7.816-10.616a16.734 16.734 0 0 0-3.947-.964c-1.862 4.454-3.464 8.583-4.701 12.491z" fill="#f99282"/><path d="m316.377 150.799-.156-.002c-3.056-.067-5.169-2.079-5.936-2.94a1 1 0 0 1 1.494-1.33c.593.666 2.216 2.221 4.484 2.271 2.934.068 5.764-2.408 6.653-5.88a1.001 1.001 0 0 1 1.938.496c-1.102 4.304-4.651 7.385-8.477 7.385zm43.388 141.076a1 1 0 0 1-.833-1.552c6.9-10.437 14.79-19.986 23.449-28.385 8.8-8.536 17.506-15.011 22.184-18.489a264.202 264.202 0 0 1 12.316-8.62 1 1 0 1 1 1.1 1.67 261.755 261.755 0 0 0-12.223 8.556c-4.641 3.45-13.279 9.874-21.984 18.319-8.557 8.298-16.353 17.736-23.174 28.053a.997.997 0 0 1-.835.448z" fill="#1d0333"/><path d="M362.22 305.371a1 1 0 0 1-.985-.833c-2.146-12.694-7.178-24.854-14.551-35.166a83.836 83.836 0 0 0-19.4-19.399 1 1 0 1 1 1.167-1.625 85.852 85.852 0 0 1 19.861 19.86c7.549 10.558 12.7 23.005 14.896 35.996a1 1 0 0 1-.988 1.167z" fill="#1d0333"/><path d="M387.759 302.849c-3.935-12.946-23.719-74.272-17.62-105.722 4.369-21.679 19.691-30.739 15.418-40.747-12.624-25.388-39.235 28.892-41.848 34.139-24.304-9.027-42.015-18.31-53.962-25.329-9.024-5.301-21.464-13.25-27.532-8.81-2.44 2.317-3.315 4.456-3.582 6.172-1.387 8.908 11.461 20.248 32.215 27.967-4.111-.402-8.034 1.303-9.911 4.405-2.607 4.309-1.036 10.937 4.405 14.316-3.483 1.3-6.045 4.237-6.608 7.709-.723 4.461 1.964 9.124 6.608 11.013-.913.638-5.742 4.124-5.506 8.81.192 3.821 3.646 6.347 5.506 7.709 11.413 8.35 36.492 9.654 42.95 9.911 4.038 19.456 8.076 36.709 12.114 56.165a138.485 138.485 0 0 0 47.353-7.708z" fill="#ffb5a6"/><path d="M346.721 311.739c-2.127 0-4.253-.061-6.375-.183a1 1 0 0 1-.92-.787l-11.95-55.408c-9.879-.44-32.095-2.294-42.727-10.072-1.992-1.458-5.698-4.17-5.914-8.466-.196-3.889 2.564-6.949 4.619-8.673-4.077-2.36-6.431-6.903-5.709-11.359.524-3.238 2.623-6.081 5.621-7.739-4.509-3.732-6.048-10.08-3.287-14.644 1.355-2.24 3.662-3.836 6.372-4.542-18.752-7.788-30.193-18.569-28.809-27.467.372-2.382 1.678-4.65 3.883-6.744a.843.843 0 0 1 .098-.081c6.194-4.532 17.597 2.225 26.763 7.652l1.866 1.103c15.952 9.371 33.767 17.76 52.961 24.94 6.332-12.658 21.713-40.614 34-40.615 3.728 0 6.836 2.449 9.238 7.281 2.443 5.717-.815 10.987-4.939 17.659-3.709 5.999-8.324 13.465-10.394 23.73-3.795 19.572 1.866 54.136 16.826 102.724l.771 2.51a1.002 1.002 0 0 1-.586 1.22 111.72 111.72 0 0 1-24.446 6.668 111.917 111.917 0 0 1-16.962 1.293zm-5.501-2.138c7.391.371 14.844-.009 22.159-1.132a109.763 109.763 0 0 0 23.151-6.211l-.497-1.622c-15.059-48.904-20.736-83.794-16.877-103.699 2.141-10.625 6.861-18.26 10.654-24.395 3.969-6.421 6.837-11.06 4.825-15.77-2.012-4.043-4.518-6.119-7.423-6.119-7.874.001-20.018 14.975-32.483 40.056l-.127.257a1.003 1.003 0 0 1-1.244.491c-19.625-7.29-37.834-15.837-54.12-25.404l-1.872-1.106c-8.177-4.843-19.362-11.463-24.512-7.796-1.848 1.77-2.937 3.638-3.235 5.556-1.312 8.422 11.673 19.475 31.576 26.876a1.002 1.002 0 0 1-.446 1.933c-3.767-.369-7.292 1.173-8.959 3.928-2.212 3.656-1.102 9.732 4.077 12.949a1 1 0 0 1-.178 1.786c-3.183 1.188-5.47 3.845-5.97 6.933-.659 4.069 1.862 8.244 5.997 9.927a.998.998 0 0 1 .195 1.746c-1.241.867-5.278 4.003-5.079 7.938.167 3.345 3.373 5.691 5.096 6.951 10.477 7.665 33.143 9.352 42.401 9.722a1 1 0 0 1 .938.788z" fill="#1d0333"/><path d="M296.354 213.545a1.01 1.01 0 0 1-.109-.006 32.61 32.61 0 0 1-11.362-3.408 1.001 1.001 0 0 1 .914-1.78 30.615 30.615 0 0 0 10.664 3.199 1.001 1.001 0 0 1-.107 1.995zm-1.102 17.88a22.209 22.209 0 0 1-10.379-2.578 1 1 0 1 1 .936-1.768 20.227 20.227 0 0 0 6.296 2.099c2.088.328 4.206.328 6.296 0a.993.993 0 0 1 1.144.831 1 1 0 0 1-.831 1.144c-1.15.181-2.306.272-3.462.272zm6.609-36.601a.98.98 0 0 1-.214-.023 75.632 75.632 0 0 1-11.159-3.347.998.998 0 1 1 .719-1.865 74.907 74.907 0 0 0 6.52 2.173c1.427.402 2.889.769 4.347 1.087a.998.998 0 0 1-.213 1.975zM445.026 442.61a1 1 0 0 1-.971-1.243 1335.23 1335.23 0 0 1 18.735-67.229 1334.018 1334.018 0 0 1 12.123-37.472.994.994 0 0 1 1.269-.624 1 1 0 0 1 .624 1.269 1329.952 1329.952 0 0 0-12.104 37.415 1332.251 1332.251 0 0 0-18.708 67.127.998.998 0 0 1-.968.757zm-169.598 7.709c-.539 0-.983-.43-.999-.973-.736-26.471-6.268-51.913-16.438-75.621a202.52 202.52 0 0 0-16.438-30.684 1 1 0 1 1 1.676-1.092c6.415 9.838 12 20.264 16.6 30.986 10.271 23.941 15.856 49.631 16.601 76.355a1 1 0 0 1-.973 1.027c-.009.002-.019.002-.029.002z" fill="#1d0333"/><path d="M416.392 408.571c8.66-3.371 22.36-7.87 39.646-9.911 31.565-3.728 76.607.561 81.494 17.62 1.007 3.516.569 8.488-2.203 11.013-4.185 3.812-11.873.396-23.127-2.203-6.745-1.557-16.805-3.29-29.734-3.304 11.199 4.487 26.749 12.406 37.443 25.329 7.787 9.41 7.171 14.43 6.608 16.519-.14.518-1.393 4.89-5.506 6.608-3.801 1.587-8.62.314-12.114-3.304 6.162 9.196 7.147 18.201 3.304 22.025-1.872 1.863-4.498 2.108-5.506 2.203-6.122.572-12.454-3.829-16.519-11.013 3.56 6.709 3.537 13.65 0 17.62-.341.383-2.934 3.211-6.608 3.304-8.438.214-12.765-14.247-20.924-24.228-6.162-7.538-17.783-16.526-41.848-19.823a726312.1 726312.1 0 0 1-4.406-48.455z" fill="#ffb5a6"/><path d="M491.783 537.985c-15.407-30.466-25.529-40.669-35.745-65.54a199.708 199.708 0 0 1-6.608-18.722l-29.734-80.393a256.323 256.323 0 0 1-75.48 23.549c12.754 70.365 10.273 195.667 76.579 203.313 35.936.787 55.997-20.63 77.021-49.746a396.133 396.133 0 0 0-6.033-12.461z" fill="#759ef2"/><g fill="#1d0333"><path d="M462.645 488.863a1 1 0 0 1-.929-.629 2661.943 2661.943 0 0 1-49.575-134.405 2657.303 2657.303 0 0 1-17.276-52.868 112.884 112.884 0 0 1-18.948 7.256c-14.677 4.146-30.002 5.269-45.547 3.334a.998.998 0 0 1-.869-1.115.99.99 0 0 1 1.115-.869c15.283 1.902 30.34.8 44.758-3.273a111.07 111.07 0 0 0 19.645-7.641c.262-.13.568-.141.839-.027.27.114.477.341.564.621a2655.13 2655.13 0 0 0 17.614 53.942 2660.247 2660.247 0 0 0 49.538 134.304 1 1 0 0 1-.929 1.37zm30.836 0a1 1 0 0 1-.954-.699 89.213 89.213 0 0 0-7.623-17.425 89.228 89.228 0 0 0-16.337-20.691 1.001 1.001 0 0 1 1.371-1.457 91.28 91.28 0 0 1 16.702 21.155 91.276 91.276 0 0 1 7.795 17.816 1.002 1.002 0 0 1-.954 1.301zm17.621-18.722a.999.999 0 0 1-.898-.559 75.961 75.961 0 0 0-6.521-10.869c-6.744-9.354-15.525-17.037-26.1-22.835a1 1 0 1 1 .961-1.753c10.838 5.941 19.842 13.821 26.762 23.419a78.145 78.145 0 0 1 6.693 11.156 1.001 1.001 0 0 1-.897 1.441zm8.809-22.025a.994.994 0 0 1-.729-.316 97.628 97.628 0 0 0-21.803-17.441 97.656 97.656 0 0 0-27.252-10.901 1 1 0 1 1 .455-1.947 99.656 99.656 0 0 1 50.059 28.923 1 1 0 0 1-.73 1.682zm-253.369-57.374a782.312 782.312 0 0 1-2.412 5.286c-12.444 26.904-14.68 34.47-19.03 47.564a344.313 344.313 0 0 0-4.614 15.076l-.297.562a66.859 66.859 0 0 1-2.203-17.62c.143-14.283 4.879-17.18 4.405-29.734-.473-12.544-5.363-14.129-3.304-23.127 1.861-8.139 6.498-9.581 8.81-17.62 2.445-8.491.088-16.618-2.203-22.025a179.857 179.857 0 0 1 20.848 41.638z"/><path d="M472.557 346.9c-3.984.934-9.461 2.924-13.215 7.709-4.509 5.748-2.082 9.852-6.608 15.418-4.274 5.257-8.385 3.989-16.519 9.911-4.756 3.462-7.95 7.244-9.911 9.911l4.405 15.418a118.598 118.598 0 0 1 25.329-6.608l16.519-51.759zm68.389 97.352a8011.218 8011.218 0 0 1-6.718 19.382c-14.438 41.408-18.777 52.035-23.127 61.671a412.303 412.303 0 0 1-10.892 22.301c7.896-.044 15.792-.077 23.699-.11.066-3.733.727-7.984 2.61-12.279 3.304-7.511 7.235-8.017 9.911-15.418 2.929-8.116-1.057-9.581 1.101-20.924 1.96-10.319 5.705-11.442 5.506-19.823-.154-6.409-2.368-6.784-2.203-13.215.121-4.945 1.498-7.522 2.852-11.211z"/></g><path d="M326.088 431.698c-2.151 4.807-4.623 12.313-3.304 20.924 1.695 11.062 7.93 12.744 7.709 20.924-.307 11.38-12.504 12.865-15.418 27.532-1.653 8.32 1.76 10.415 0 18.722-2.072 9.778-8.872 16.642-14.317 20.924l57.266-39.646-12.114-75.988-19.822 6.608z" fill="#577ddd"/><path d="M206.051 491.065a.994.994 0 0 1-.791-.388.998.998 0 0 1 .178-1.402c14.388-11.147 29.633-20.815 45.313-28.735 15.039-7.597 31.249-13.521 60.678-24.274a1914.546 1914.546 0 0 1 34.157-12.12 1 1 0 0 1 .651 1.891 1918.472 1918.472 0 0 0-34.121 12.108c-29.357 10.728-45.528 16.638-60.462 24.181-15.567 7.863-30.704 17.462-44.991 28.53-.183.14-.399.209-.612.209zm-13.329 106.882c-4.269 0-8.562-.488-12.917-1.531a59.348 59.348 0 0 1-13.868-5.25 1.001 1.001 0 0 1 .934-1.77 57.281 57.281 0 0 0 13.401 5.074c28.38 6.805 54.648-11.02 87.892-33.584l28.564-19.386a54322.629 54322.629 0 0 0 60.734-41.25 1.002 1.002 0 0 1 1.125 1.655 55729.492 55729.492 0 0 1-60.736 41.251l-28.564 19.386c-28.641 19.44-52.16 35.405-76.565 35.405z" fill="#1d0333"/><path d="M426.617 601.567c-1.96 0-3.94-.122-5.949-.383-9.779-1.27-16.793-5.385-19.098-6.737-35.184-20.638-44.643-87.145-52.244-140.583a18692.234 18692.234 0 0 1-19.824-143.173 1 1 0 0 1 1.982-.266c6.11 45.487 12.779 93.652 19.822 143.157 7.54 53.013 16.925 118.989 51.275 139.14 2.218 1.301 8.968 5.262 18.344 6.479 26.334 3.411 49.014-18.074 57.552-26.165 23.312-22.098 32.339-46.453 46.003-83.319 3.803-10.26 6.322-18.33 8.989-26.874 3.688-11.818 7.87-25.213 16.346-46.926a855.82 855.82 0 0 1 13.231-31.976 1 1 0 0 1 1.832.802 853.114 853.114 0 0 0-13.2 31.899c-8.45 21.648-12.441 34.433-16.3 46.795-2.675 8.569-5.202 16.664-9.023 26.974-13.761 37.129-22.852 61.658-46.503 84.075-8.083 7.663-28.573 27.081-53.235 27.081zm-96.124-292.11a80.072 80.072 0 0 1 8.81-3.304l1.101 4.405-9.911-1.101zm56.165-11.013h8.81l-7.709 4.405-1.101-4.405zm-79.986-182.172c-.33-.077-.661-.143-.98-.209-4.901-.914-7.918-.143-9.823-2.665-.066-.088-.132-.187-.209-.286-.198-.286-.418-.628-.54-1.002-.055-.242-.099-.518-.055-.782.341-2.181 4.79-3.91 9.427-3.888.76 0 1.531.055 2.28.165 1.42 3.48 1.277 6.85-.1 8.667zm35.935 11.475c-.044.033-.077.077-.121.099-5.506-.881-8.986-.165-11.211-3.183-.11-.165-.253-.341-.374-.54-.286-.429-.562-.947-.595-1.531a1.858 1.858 0 0 1 .011-.551c.407-2.742 5.936-4.956 11.684-4.934.132 0 .275 0 .408.011 2.301 4.297 2.169 8.746.198 10.629z" fill="#1d0333"/><path d="M289.087 163.266c-.067 0-.123.011-.189.011.089.635.178 1.292.267 1.95-.034-.657-.056-1.303-.078-1.961z" fill="#71757f"/><path d="M288.897 163.277c.089.635.178 1.292.267 1.95-.033-.657-.056-1.303-.078-1.961-.066 0-.122.011-.189.011z" fill="#1d0333"/></svg></g></svg>